<?xml version="1.0" standalone="no"?>
<!DOCTYPE svg PUBLIC "-//W3C//DTD SVG 1.1//EN" "http://www.w3.org/Graphics/SVG/1.1/DTD/svg11.dtd" >
<svg xmlns="http://www.w3.org/2000/svg" xmlns:xlink="http://www.w3.org/1999/xlink" version="1.1">
<metadata>
Created by FontForge 20160407 at Wed Jul  6 14:42:50 2016
 By Jimmy Wärting
Copyright 2004 Adobe Systems Incorporated. All rights reserved.
</metadata>
<defs>
<font id="LiteraturnayaC" horiz-adv-x="530" >
  <font-face 
    font-family="LiteraturnayaC"
    font-weight="400"
    font-stretch="normal"
    units-per-em="1000"
    panose-1="0 0 5 0 0 0 0 0 0 0"
    ascent="764"
    descent="-236"
    x-height="462"
    cap-height="700"
    bbox="-400 -236 1349 908"
    underline-thickness="50"
    underline-position="-100"
    stemh="23"
    stemv="62"
    unicode-range="U+0020-2122"
  />
<missing-glyph horiz-adv-x="233" 
 />
    <glyph glyph-name=".notdef" horiz-adv-x="233" 
 />
    <glyph glyph-name="space" unicode=" " horiz-adv-x="233" 
 />
    <glyph glyph-name="space" unicode="&#xa0;" horiz-adv-x="233" 
 />
    <glyph glyph-name="exclam" unicode="!" horiz-adv-x="290" 
d="M141 180v34c0 71 -8 214 -23 316c-5 35 -9 55 -9 95c0 21 0 89 46 89s46 -68 46 -89c0 -40 -4 -60 -9 -95c-15 -102 -23 -245 -23 -316v-34h-28zM105 36c0 27 23 50 50 50s50 -23 50 -50s-23 -50 -50 -50s-50 23 -50 50z" />
    <glyph glyph-name="quotedbl" unicode="&#x22;" horiz-adv-x="426" 
d="M170 714l-28 -222h-39l-28 222h95zM351 714l-28 -222h-39l-28 222h95z" />
    <glyph glyph-name="numbersign" unicode="#" horiz-adv-x="680" 
d="M426 6h-57l30 177h-174l-30 -177h-57l30 177h-154l10 57h155l36 208h-155l9 57h155l31 177h57l-31 -177h173l31 177h57l-31 -177h155l-9 -57h-155l-36 -208h155l-10 -57h-155zM409 240l36 208h-173l-36 -208h173z" />
    <glyph glyph-name="dollar" unicode="$" horiz-adv-x="638" 
d="M304 798h38v-84c35 -2 85 -12 135 -45c19 -13 54 -39 54 -79c0 -31 -23 -46 -42 -46c-14 0 -45 6 -54 46c-7 29 -23 88 -93 90v-259c55 -26 125 -66 166 -103s65 -73 65 -124c0 -53 -21 -104 -59 -141c-41 -40 -102 -67 -172 -67v-113h-38v113c-36 2 -94 11 -160 50
c-28 17 -79 52 -79 105c0 40 31 56 54 56c45 0 54 -43 60 -71c20 -88 79 -106 125 -106v312c-64 32 -88 47 -99 54c-53 34 -100 76 -100 143c0 49 16 97 52 130s94 53 147 55v84zM304 438v243c-80 1 -129 -59 -129 -108c0 -28 13 -88 129 -135zM342 314v-294
c104 9 155 76 155 140c0 40 -19 70 -58 100c-31 24 -71 43 -97 54z" />
    <glyph glyph-name="percent" unicode="%" horiz-adv-x="990" 
d="M294 -149l-23 13l493 971l25 -12zM138 556c0 119 82 185 167 185s167 -66 167 -185s-82 -185 -167 -185s-167 66 -167 185zM215 556c0 -41 0 -76 15 -111c9 -20 27 -50 75 -50s66 30 75 50c15 35 15 70 15 111s0 76 -15 111c-9 20 -27 50 -75 50s-66 -30 -75 -50
c-15 -35 -15 -70 -15 -111zM581 125c0 119 82 185 167 185s167 -66 167 -185s-82 -185 -167 -185s-167 66 -167 185zM658 125c0 -41 0 -76 15 -111c9 -20 27 -50 75 -50s66 30 75 50c15 35 15 70 15 111s0 76 -15 111c-9 20 -27 50 -75 50s-66 -30 -75 -50
c-15 -35 -15 -70 -15 -111z" />
    <glyph glyph-name="ampersand" unicode="&#x26;" horiz-adv-x="738" 
d="M492 389h177v-14c-47 -9 -73 -42 -120 -142c-8 -17 -20 -41 -26 -53l48 -75c26 -40 61 -82 106 -89l12 -2v-14h-145l-68 103h-4c-13 -16 -46 -54 -83 -79c-48 -32 -91 -38 -124 -38c-46 0 -97 11 -133 40c-33 27 -59 72 -59 128c0 66 31 117 70 158c25 25 66 61 138 99
c-37 50 -58 93 -58 141c0 49 17 95 48 124c14 13 48 38 103 38c45 0 79 -17 105 -50c17 -22 26 -47 26 -75c0 -24 -7 -61 -42 -98c-23 -24 -64 -51 -97 -68l133 -206c7 13 18 33 24 50c4 10 14 38 14 54c0 34 -27 49 -45 54v14zM321 493l27 -43c44 24 104 71 104 151
c0 56 -32 83 -80 83c-54 0 -89 -32 -89 -89c0 -35 11 -60 38 -102zM303 380h-8c-39 -24 -65 -52 -81 -72c-29 -37 -48 -81 -48 -131c0 -26 6 -58 34 -87c18 -18 48 -39 94 -39c42 0 75 14 104 37c22 18 46 45 54 55z" />
    <glyph glyph-name="quotesingle" unicode="'" horiz-adv-x="245" 
d="M170 714l-28 -222h-39l-28 222h95z" />
    <glyph glyph-name="parenleft" unicode="(" horiz-adv-x="362" 
d="M248 722l9 -8c-62 -64 -90 -128 -100 -151c-19 -45 -46 -133 -46 -316c0 -163 26 -263 52 -326c25 -59 57 -104 94 -141l-9 -8c-82 71 -136 152 -171 229c-41 91 -52 167 -52 246c0 83 11 151 52 243c40 90 89 164 171 232z" />
    <glyph glyph-name="parenright" unicode=")" horiz-adv-x="362" 
d="M114 -228l-9 8c62 64 90 128 100 151c19 45 46 133 46 316c0 163 -26 263 -52 326c-25 59 -57 104 -94 141l9 8c82 -71 136 -152 171 -229c41 -91 52 -167 52 -246c0 -83 -11 -151 -52 -243c-40 -90 -89 -164 -171 -232z" />
    <glyph glyph-name="asterisk" unicode="*" horiz-adv-x="510" 
d="M255 714c20 0 37 -14 37 -36c0 -15 -6 -24 -12 -35c-14 -26 -16 -58 -16 -71c0 -15 11 -18 16 -18c8 0 28 13 34 17c17 12 26 25 35 39c7 11 17 28 38 28c17 0 37 -13 37 -40c0 -32 -32 -33 -39 -33c-17 -1 -33 -2 -55 -10c-17 -7 -38 -15 -38 -29s14 -20 29 -27
c12 -5 22 -10 40 -12c17 -2 22 0 31 -2c21 -4 33 -20 33 -36c0 -19 -15 -36 -37 -36c-20 0 -28 14 -37 28c-7 11 -15 24 -40 41c-5 4 -19 12 -30 12c-16 0 -16 -14 -16 -25c0 -31 7 -46 15 -61c6 -11 13 -23 13 -34c0 -8 -3 -19 -9 -26s-19 -13 -29 -13s-23 6 -29 13
s-9 18 -9 26c0 11 7 23 13 34c8 15 15 30 15 61c0 11 0 25 -16 25c-11 0 -25 -8 -30 -12c-25 -17 -33 -30 -40 -41c-9 -14 -17 -28 -37 -28c-22 0 -37 17 -37 36c0 16 12 32 33 36c9 2 14 0 31 2c18 2 28 7 40 12c15 7 29 13 29 27s-21 22 -38 29c-22 8 -38 9 -55 10
c-7 0 -39 1 -39 33c0 27 20 40 37 40c21 0 31 -17 38 -28c9 -14 18 -27 35 -39c6 -4 26 -17 34 -17c5 0 16 3 16 18c0 13 -2 45 -16 71c-6 11 -12 20 -12 35c0 22 17 36 37 36z" />
    <glyph glyph-name="plus" unicode="+" horiz-adv-x="816" 
d="M105 344h279v279h48v-279h279v-48h-279v-279h-48v279h-279v48z" />
    <glyph glyph-name="comma" unicode="," horiz-adv-x="291" 
d="M114 -162l-11 12c12 10 29 27 40 46c14 24 15 45 15 57c0 31 -20 30 -40 36c-7 2 -13 5 -18 10c-13 12 -15 24 -15 33c0 31 18 54 50 54c37 0 71 -24 71 -83c0 -61 -37 -126 -92 -165z" />
    <glyph glyph-name="hyphenminus" horiz-adv-x="408" 
d="M105 216v56h198v-56h-198z" />
    <glyph glyph-name="period" unicode="." horiz-adv-x="270" 
d="M85 36c0 27 23 50 50 50s50 -23 50 -50s-23 -50 -50 -50s-50 23 -50 50z" />
    <glyph glyph-name="slash" unicode="/" horiz-adv-x="474" 
d="M42 -166l-40 17l428 1019l42 -17z" />
    <glyph glyph-name="zero" unicode="0" 
d="M265 714c119 0 220 -113 220 -364s-101 -364 -220 -364s-220 113 -220 364s101 364 220 364zM265 684c-143 0 -140 -196 -140 -334s-3 -334 140 -334s140 196 140 334s3 334 -140 334z" />
    <glyph glyph-name="one" unicode="1" horiz-adv-x="550" 
d="M313 700v-586c0 -32 -1 -98 86 -100v-14h-248v14c87 2 86 68 86 100v440c0 14 2 76 -70 70v13c47 3 95 30 105 63h41z" />
    <glyph glyph-name="two" unicode="2" 
d="M458 147h16l-47 -147h-385v37c92 79 192 183 256 269c46 62 90 132 90 228c0 30 -4 57 -28 90c-35 48 -76 60 -120 60c-83 0 -130 -64 -130 -119c0 -22 10 -32 23 -44c15 -14 38 -33 38 -63c0 -23 -14 -40 -37 -40c-48 0 -72 57 -72 103c0 44 14 100 67 144
c36 30 83 49 133 49c53 0 107 -17 150 -59c37 -37 62 -88 62 -144c0 -100 -68 -171 -151 -249c-149 -139 -169 -157 -192 -190h196c43 0 98 0 131 75z" />
    <glyph glyph-name="three" unicode="3" 
d="M186 359v30h44c69 0 137 61 137 150c0 85 -48 145 -125 145c-66 0 -106 -39 -106 -69c0 -19 11 -29 11 -53c0 -32 -21 -43 -35 -43c-9 0 -37 5 -37 43c0 53 46 99 51 104c40 38 82 48 131 48c113 0 182 -75 182 -170c0 -43 -16 -74 -46 -106c-30 -33 -60 -46 -83 -53v-6
c45 -4 96 -24 128 -60c20 -22 43 -60 43 -117c0 -56 -16 -104 -61 -149c-44 -44 -99 -67 -167 -67c-73 0 -125 27 -161 63c-33 33 -43 66 -43 93c0 39 20 71 50 71c25 0 40 -21 40 -38c0 -10 -4 -27 -9 -38c-7 -16 -16 -27 -16 -45c0 -11 3 -22 9 -31c21 -32 74 -45 109 -45
c32 0 65 4 92 21c25 15 71 56 71 158c0 146 -87 164 -168 164h-41z" />
    <glyph glyph-name="four" unicode="4" 
d="M368 700v-456h107v-37h-107v-93c0 -37 2 -92 76 -100v-14h-226v14c74 8 76 63 76 100v93h-259v14l295 479h38zM294 601l-212 -357h212v357z" />
    <glyph glyph-name="five" unicode="5" 
d="M424 728h14l-44 -100h-252l-6 -231c55 51 106 60 138 60c138 0 212 -118 212 -233c0 -133 -104 -238 -239 -238c-63 0 -110 19 -148 59c-27 29 -41 62 -41 105c0 44 25 74 55 74c18 0 34 -12 34 -36c0 -23 -9 -37 -20 -54c-7 -11 -11 -19 -11 -35c0 -51 63 -83 121 -83
c68 0 165 43 165 210c0 117 -48 201 -143 201c-60 0 -105 -35 -123 -85h-31l8 358h233c13 0 46 -3 78 28z" />
    <glyph glyph-name="six" unicode="6" horiz-adv-x="531" 
d="M135 373c51 62 122 70 158 70c93 0 142 -53 162 -81c26 -37 42 -89 42 -144c0 -54 -17 -110 -53 -156c-44 -56 -97 -76 -160 -76c-168 0 -233 161 -233 341c0 75 11 202 76 294c41 58 95 93 168 93c38 0 75 -9 108 -37c6 -5 42 -36 42 -74c0 -29 -21 -37 -37 -37
c-39 0 -42 38 -47 64c-8 39 -38 54 -74 54c-68 0 -160 -48 -152 -311zM280 16c70 0 131 60 131 200c0 179 -96 197 -132 197c-35 0 -131 -18 -131 -197c0 -162 79 -200 132 -200z" />
    <glyph glyph-name="seven" unicode="7" 
d="M67 555h-16l49 145h382v-48c-18 -22 -96 -118 -148 -221c-49 -98 -106 -263 -103 -431h-87c24 162 79 340 168 478c33 52 93 130 109 151h-231c-55 0 -100 -27 -123 -74z" />
    <glyph glyph-name="eight" unicode="8" 
d="M200 372c-60 24 -121 77 -121 160c0 108 81 182 185 182c112 0 187 -85 187 -166c0 -92 -84 -141 -118 -157c132 -60 153 -147 153 -198c0 -99 -80 -207 -219 -207c-145 0 -223 105 -223 199c0 97 77 163 156 187zM307 408c35 24 87 74 87 148c0 69 -45 128 -129 128
c-94 0 -129 -59 -129 -109c0 -83 90 -130 171 -167zM227 352c-95 -40 -117 -129 -117 -171c0 -77 56 -165 160 -165c94 0 155 70 155 140c0 76 -57 116 -86 134c-20 13 -48 28 -112 62z" />
    <glyph glyph-name="nine" unicode="9" 
d="M397 333c-13 -21 -55 -79 -149 -79c-78 0 -131 43 -160 82c-37 49 -44 102 -44 141c0 70 21 121 51 159c57 71 132 78 162 78c109 0 168 -80 196 -152c22 -54 33 -137 33 -201c0 -59 -15 -148 -36 -206c-55 -150 -145 -169 -209 -169c-39 0 -86 12 -126 56
c-25 28 -35 59 -35 82c0 37 22 57 47 57c23 0 48 -19 37 -67c-3 -14 -9 -27 -9 -38c0 -29 30 -60 92 -60c27 0 70 7 106 58c24 34 52 102 44 259zM257 284c40 0 75 23 97 58c13 21 30 61 30 141c0 85 -17 126 -30 147c-14 21 -44 54 -97 54s-84 -37 -97 -58
c-20 -33 -30 -78 -30 -141c0 -74 13 -116 30 -143c22 -35 57 -58 97 -58z" />
    <glyph glyph-name="colon" unicode=":" horiz-adv-x="270" 
d="M85 35c0 27 23 50 50 50s50 -23 50 -50s-23 -50 -50 -50s-50 23 -50 50zM85 427c0 27 23 50 50 50s50 -23 50 -50s-23 -50 -50 -50s-50 23 -50 50z" />
    <glyph glyph-name="semicolon" unicode=";" horiz-adv-x="291" 
d="M91 427c0 27 23 50 50 50s50 -23 50 -50s-23 -50 -50 -50s-50 23 -50 50zM114 -162l-11 12c12 10 29 27 40 46c14 24 15 45 15 57c0 31 -20 30 -40 36c-7 2 -13 5 -18 10c-13 12 -15 24 -15 33c0 31 18 54 50 54c37 0 71 -24 71 -83c0 -61 -37 -126 -92 -165z" />
    <glyph glyph-name="less" unicode="&#x3c;" horiz-adv-x="691" 
d="M50 287l525 223l11 -32l-433 -191l433 -191l-11 -32z" />
    <glyph glyph-name="equal" unicode="=" horiz-adv-x="816" 
d="M105 414h606v-48h-606v48zM105 272h606v-48h-606v48z" />
    <glyph glyph-name="greater" unicode="&#x3e;" horiz-adv-x="691" 
d="M641 287l-525 -223l-11 32l433 191l-433 191l11 32z" />
    <glyph glyph-name="question" unicode="?" horiz-adv-x="487" 
d="M199 188h-30v204l19 -3c43 -7 59 -6 64 -6c24 0 48 12 64 32c21 26 22 64 22 72c0 30 -7 71 -34 120c-34 61 -71 77 -95 77c-12 0 -21 -4 -30 -12c-33 -30 -12 -20 -31 -36c-8 -7 -19 -14 -30 -14c-22 0 -33 14 -33 31s16 35 33 45c18 10 43 16 63 16
c55 0 120 -35 168 -102c38 -54 53 -112 53 -166c0 -51 -18 -84 -35 -103c-35 -41 -83 -45 -117 -45c-23 0 -37 2 -51 6v-116zM135 36c0 27 23 50 50 50s50 -23 50 -50s-23 -50 -50 -50s-50 23 -50 50z" />
    <glyph glyph-name="at" unicode="@" horiz-adv-x="1093" 
d="M813 563l-83 -275c-14 -46 -19 -70 -19 -84c0 -54 34 -64 48 -64c30 0 70 15 95 35c43 35 99 121 99 229c0 104 -43 197 -107 258c-65 62 -165 103 -284 103c-101 0 -199 -34 -284 -118c-56 -55 -125 -152 -125 -300c0 -106 37 -212 128 -305c85 -87 167 -117 277 -117
c61 0 109 5 169 30c46 19 76 40 101 62l22 -28c-24 -18 -60 -41 -100 -60c-67 -31 -124 -39 -189 -39c-119 0 -217 29 -313 125c-99 99 -143 225 -143 333c0 122 47 237 135 323c96 94 209 129 333 129c89 0 200 -19 301 -116c85 -82 114 -172 114 -277
c0 -140 -65 -216 -95 -245c-49 -46 -100 -57 -144 -57c-72 0 -105 42 -118 63c-42 -33 -84 -53 -141 -53c-68 0 -105 41 -115 52c-30 34 -46 88 -46 137c0 57 22 130 69 186c35 41 99 91 198 91c26 0 76 -5 119 -65l15 47h83zM623 213l68 240c-10 56 -48 96 -97 96
c-37 0 -87 -24 -126 -100c-25 -49 -42 -109 -42 -153c0 -31 -1 -75 14 -103c14 -26 37 -42 71 -42c53 0 91 33 112 62z" />
    <glyph glyph-name="A" unicode="A" horiz-adv-x="632" 
d="M357 733l196 -627c3 -11 27 -88 99 -92v-14h-241v14h12c34 0 57 22 57 51c0 9 -3 16 -5 24l-37 127h-274l-40 -128c-7 -22 -2 -74 53 -74v-14h-187v14c72 8 93 68 98 81l170 475c2 7 5 16 5 24c0 22 -18 31 -39 32h-18v16c54 6 95 41 107 91h44zM310 622l-135 -376h251z
" />
    <glyph glyph-name="B" unicode="B" horiz-adv-x="670" 
d="M50 700h315c37 0 112 -1 164 -58c35 -39 38 -84 38 -104c0 -95 -71 -160 -152 -165v-5c41 -4 102 -20 139 -48c36 -28 61 -75 61 -135c0 -51 -22 -95 -51 -125c-52 -54 -120 -60 -175 -60h-339v14c75 7 76 62 76 100v472c0 37 -2 92 -76 100v14zM202 379h132
c94 0 151 59 151 143c0 35 -11 76 -31 101c-33 43 -82 47 -122 47h-60c-67 0 -70 -28 -70 -61v-230zM202 349v-274c0 -20 3 -45 59 -45h105c54 0 102 26 127 59c18 24 30 59 30 96c0 48 -17 87 -43 113c-48 49 -121 51 -148 51h-130z" />
    <glyph glyph-name="C" unicode="C" horiz-adv-x="699" 
d="M611 549h-14c-41 97 -133 135 -206 135c-94 0 -239 -71 -239 -337c0 -62 6 -144 57 -219c36 -53 102 -112 202 -112c61 0 126 24 166 66c25 27 43 65 51 101h16v-141c-67 -36 -142 -56 -216 -56c-236 0 -368 189 -368 362c0 193 141 366 384 366c62 0 113 -12 167 -36
v-129z" />
    <glyph glyph-name="D" unicode="D" horiz-adv-x="759" 
d="M50 700h282c51 0 157 -6 246 -79c74 -61 121 -160 121 -282c0 -89 -32 -166 -80 -222c-86 -101 -197 -117 -290 -117h-279v14c75 7 76 62 76 100v472c0 37 -2 92 -76 100v14zM202 604v-495c0 -81 45 -79 88 -79h79c62 0 131 40 169 87c64 79 69 202 69 248
c0 156 -70 229 -126 263c-45 27 -106 42 -152 42h-50c-78 0 -77 -40 -77 -66z" />
    <glyph glyph-name="E" unicode="E" horiz-adv-x="646" 
d="M50 700h510l22 -137h-22c-8 18 -24 49 -44 68c-22 21 -58 39 -101 39h-150c-38 0 -63 -23 -63 -65v-208h193c19 0 50 3 67 29c9 13 11 30 10 43h16v-174h-16c1 13 -1 30 -10 43c-17 26 -48 29 -67 29h-193v-275c0 -12 2 -62 70 -62h142c41 0 123 0 176 111h16l-24 -141
h-532v14c75 7 76 62 76 100v472c0 38 -1 93 -76 100v14z" />
    <glyph glyph-name="F" unicode="F" horiz-adv-x="597" 
d="M50 700h520l22 -137h-22c-7 23 -22 49 -42 68c-22 21 -60 39 -103 39h-160c-38 0 -63 -23 -63 -65v-208h174c19 0 50 3 67 29c9 13 11 30 10 43h16v-177h-16c2 17 -2 34 -10 46c-17 26 -49 29 -67 29h-174v-253c0 -37 2 -92 76 -100v-14h-228v14c74 6 76 60 76 100v472
c0 38 -1 93 -76 100v14z" />
    <glyph glyph-name="G" unicode="G" horiz-adv-x="773" 
d="M644 549h-14c-26 60 -81 135 -193 135c-102 0 -187 -48 -232 -116c-50 -75 -53 -181 -53 -221c0 -64 10 -129 39 -187c42 -84 114 -144 226 -144c37 0 98 7 133 29c45 28 47 62 47 91v112c0 25 0 97 -76 100v14h222v-14c-70 -6 -70 -67 -70 -100v-112c0 -14 1 -33 10 -47
c9 -15 29 -30 60 -30c-53 -28 -101 -44 -158 -57c-51 -11 -90 -16 -134 -16c-109 0 -250 24 -335 153c-40 61 -56 136 -56 209c0 88 31 171 78 232c94 122 221 134 310 134c73 0 119 -8 196 -41v-124z" />
    <glyph glyph-name="H" unicode="H" horiz-adv-x="782" 
d="M50 700h228v-14c-74 -8 -76 -63 -76 -100v-194h378v194c0 37 -2 92 -76 100v14h228v-14c-74 -8 -76 -63 -76 -100v-472c0 -37 2 -92 76 -100v-14h-228v14c74 8 76 63 76 100v248h-378v-248c0 -37 2 -92 76 -100v-14h-228v14c74 8 76 63 76 100v472c0 37 -2 92 -76 100v14
z" />
    <glyph glyph-name="I" unicode="I" horiz-adv-x="328" 
d="M50 700h228v-14c-74 -8 -76 -63 -76 -100v-472c0 -37 2 -92 76 -100v-14h-228v14c74 8 76 63 76 100v472c0 37 -2 92 -76 100v14z" />
    <glyph glyph-name="J" unicode="J" horiz-adv-x="472" 
d="M194 700h228v-14c-74 -8 -76 -63 -76 -100v-392c0 -57 -5 -97 -34 -138c-32 -47 -77 -70 -135 -70c-43 0 -92 18 -125 49c-31 29 -37 57 -37 79c0 30 17 47 44 47c15 0 49 -5 52 -73c2 -33 6 -72 65 -72c41 0 64 18 77 36c17 25 17 59 17 80v454c0 37 -2 92 -76 100v14z
" />
    <glyph glyph-name="K" unicode="K" horiz-adv-x="655" 
d="M50 700h228v-14c-74 -8 -76 -63 -76 -100v-282l247 266c13 14 32 41 32 65c0 19 -9 52 -63 51v14h224v-14c-15 -3 -58 -14 -107 -66l-171 -184c21 -45 66 -141 102 -208c102 -189 177 -265 234 -311l-13 -17c-48 30 -96 67 -159 134c-90 96 -161 201 -233 328l-93 -99
v-149c0 -37 2 -92 76 -100v-14h-228v14c74 8 76 63 76 100v472c0 37 -2 92 -76 100v14z" />
    <glyph glyph-name="L" unicode="L" horiz-adv-x="609" 
d="M50 700h228v-14c-74 -8 -76 -63 -76 -100v-472c0 -47 -1 -84 59 -84h131c35 0 127 0 176 111h16l-24 -141h-510v14c74 8 76 63 76 100v472c0 37 -2 92 -76 100v14z" />
    <glyph glyph-name="M" unicode="M" horiz-adv-x="949" 
d="M292 700l175 -504l195 504h162v-14c-83 -5 -70 -63 -66 -85l83 -500c8 -49 43 -83 91 -87v-14h-248v14c37 -4 77 16 77 60c0 13 -4 24 -5 33l-84 511l-212 -542h-30l-194 525l-98 -482c-2 -9 -5 -34 -5 -43c0 -45 49 -60 77 -62v-14h-193v14c51 2 75 37 86 92l95 473
c3 14 3 23 3 38c0 13 -1 65 -72 69v14h163z" />
    <glyph glyph-name="N" unicode="N" horiz-adv-x="755" 
d="M50 700h146l397 -584h3v470c0 37 -2 92 -76 100v14h185v-14c-74 -8 -76 -63 -76 -100v-600h-33l-437 615v-487c0 -37 2 -92 76 -100v-14h-185v14c74 8 76 63 76 100v486c0 22 -4 78 -76 86v14z" />
    <glyph glyph-name="O" unicode="O" horiz-adv-x="792" 
d="M60 350c0 82 28 176 86 245s149 119 250 119s192 -50 250 -119s86 -163 86 -245s-28 -176 -86 -245s-149 -119 -250 -119s-192 50 -250 119s-86 163 -86 245zM152 350c0 -76 17 -167 59 -230c48 -71 121 -104 185 -104s137 33 185 104c42 63 59 154 59 230
s-17 167 -59 230c-48 71 -121 104 -185 104s-137 -33 -185 -104c-42 -63 -59 -154 -59 -230z" />
    <glyph glyph-name="P" unicode="P" horiz-adv-x="626" 
d="M50 700h299c64 0 146 -7 207 -81c35 -42 45 -87 45 -132c0 -50 -14 -120 -88 -171c-29 -20 -92 -53 -218 -53h-93v-149c0 -37 2 -92 76 -100v-14h-228v14c74 8 76 63 76 100v472c0 37 -2 92 -76 100v14zM202 293h89c209 0 218 128 218 186c0 35 -4 96 -30 133
c-39 57 -102 58 -138 58h-61c-85 0 -78 -47 -78 -83v-294z" />
    <glyph glyph-name="Q" unicode="Q" horiz-adv-x="792" 
d="M682 -76h16c-8 -51 -49 -102 -119 -102c-52 0 -87 26 -108 52c-28 34 -34 68 -51 113c-8 -1 -16 -1 -24 -1c-83 0 -181 36 -250 119c-58 69 -86 163 -86 245s28 176 86 245s149 119 250 119s192 -50 250 -119s86 -163 86 -245s-28 -176 -86 -245
c-34 -40 -84 -80 -149 -102c4 -18 13 -43 30 -69c16 -24 41 -52 88 -52c30 0 54 18 67 42zM298 157v16c12 3 25 3 37 3c25 0 51 -8 72 -22c42 -27 62 -71 78 -117c49 20 80 59 96 83c42 64 59 153 59 230c0 76 -16 167 -59 230c-48 71 -121 104 -185 104s-137 -33 -185 -104
c-42 -63 -59 -154 -59 -230s17 -167 59 -230c48 -71 121 -104 185 -104c6 0 13 0 19 1c-4 32 -14 62 -36 94c-12 17 -37 49 -81 46z" />
    <glyph glyph-name="R" unicode="R" horiz-adv-x="663" 
d="M50 700h303c52 0 113 -3 168 -37c50 -31 83 -79 83 -151c0 -98 -67 -185 -175 -211c44 -167 108 -283 214 -386l-11 -15c-125 81 -244 211 -295 387c-14 -1 -28 -1 -42 -1c-38 0 -72 3 -93 6v-178c0 -37 2 -92 76 -100v-14h-228v14c74 8 76 63 76 100v472
c0 37 -2 92 -76 100v14zM202 322c28 -5 54 -6 82 -6c156 0 228 84 228 184c0 64 -28 114 -62 138c-30 21 -84 32 -123 32h-55c-50 0 -70 -35 -70 -79v-269z" />
    <glyph glyph-name="S" unicode="S" horiz-adv-x="616" 
d="M495 546h-16c-30 86 -106 138 -193 138c-88 0 -129 -55 -129 -116c0 -107 121 -136 217 -178c105 -45 182 -88 182 -190c0 -107 -96 -214 -250 -214c-38 0 -118 7 -234 69l-7 133h16c37 -105 128 -172 232 -172c121 0 163 82 163 144c0 93 -91 125 -169 162
c-130 60 -217 87 -217 214c0 104 86 178 208 178c68 0 136 -24 186 -55z" />
    <glyph glyph-name="T" unicode="T" horiz-adv-x="582" 
d="M50 700h482l30 -134h-16c-28 53 -83 104 -161 104c-57 0 -56 -37 -56 -66v-490c0 -37 2 -92 76 -100v-14h-228v14c74 8 76 63 76 100v490c0 25 1 66 -56 66c-78 0 -133 -50 -161 -104h-16z" />
    <glyph glyph-name="U" unicode="U" horiz-adv-x="759" 
d="M50 700h228v-14c-74 -8 -76 -63 -76 -100v-378c0 -176 152 -192 213 -192c181 0 208 153 208 220v350c0 37 -2 92 -76 100v14h185v-14c-74 -8 -76 -63 -76 -100v-351c0 -105 -41 -167 -89 -203c-55 -41 -119 -46 -166 -46c-148 0 -219 60 -250 119
c-26 50 -25 101 -25 132v349c0 37 -2 92 -76 100v14z" />
    <glyph glyph-name="V" unicode="V" horiz-adv-x="666" 
d="M359 93l182 485c3 7 11 31 11 48c0 42 -37 60 -70 60v14h194v-14c-46 0 -77 -31 -92 -72l-233 -628h-37l-215 612c-19 55 -41 86 -99 88v14h219v-14c-42 1 -54 -19 -54 -36c0 -9 3 -25 6 -32z" />
    <glyph glyph-name="W" unicode="W" horiz-adv-x="921" 
d="M474 418l-138 -432h-45l-183 584c-15 47 -32 108 -108 116v14h217v-14c-33 -4 -59 -30 -40 -88l162 -501l121 372l-38 128c-10 34 -25 82 -91 89v14h220v-14c-34 0 -58 -21 -58 -52c0 -10 3 -28 6 -37l151 -500l160 492c2 6 7 30 7 36c0 11 1 55 -55 61v14h169v-14
c-54 -11 -68 -53 -82 -94l-202 -606h-45z" />
    <glyph glyph-name="X" unicode="X" horiz-adv-x="642" 
d="M332 422l123 190c6 9 14 25 14 36c0 18 -14 36 -62 36v16h200v-16c-62 -6 -97 -47 -121 -83l-137 -204l193 -321c13 -22 39 -57 93 -62v-14h-237v14c19 0 55 7 55 40c0 12 -10 34 -16 44l-136 230l-149 -230c-7 -10 -12 -20 -12 -34c0 -28 27 -52 60 -50v-14h-199v14
c54 14 87 45 120 94l164 244l-151 254c-14 23 -37 72 -102 80v14h223v-14c-17 1 -52 -3 -52 -36c0 -17 9 -24 16 -36z" />
    <glyph glyph-name="Y" unicode="Y" horiz-adv-x="589" 
d="M422 14v-14h-228v14c74 8 76 63 76 100v181l-174 315c-31 56 -57 75 -101 76v14h234v-14c-41 -1 -57 -21 -57 -38c0 -9 6 -23 11 -31l152 -275l131 275c4 9 9 26 9 33c0 18 -20 35 -47 36v14h171v-14c-68 -5 -95 -60 -111 -94l-142 -297v-181c0 -37 2 -92 76 -100z" />
    <glyph glyph-name="Z" unicode="Z" horiz-adv-x="647" 
d="M101 560h-18l50 140h469l-436 -670h118c187 0 258 52 299 119h19l-47 -149h-505l439 670h-123c-178 0 -240 -73 -265 -110z" />
    <glyph glyph-name="bracketleft" unicode="[" horiz-adv-x="308" 
d="M203 714v-25h-47c-6 0 -49 0 -49 -47v-792c0 -47 43 -47 49 -47h47v-25h-168v936h168z" />
    <glyph glyph-name="backslash" unicode="\" horiz-adv-x="474" 
d="M430 -166l-428 1019l40 17l430 -1019z" />
    <glyph glyph-name="bracketright" unicode="]" horiz-adv-x="308" 
d="M105 714h168v-936h-168v25h47c6 0 49 0 49 47v792c0 47 -43 47 -49 47h-47v25z" />
    <glyph glyph-name="asciicircum" unicode="^" horiz-adv-x="378" 
d="M189 628l-81 -81h-86l167 167l167 -167h-86z" />
    <glyph glyph-name="underscore" unicode="_" horiz-adv-x="596" 
d="M5 -198v48h586v-48h-586z" />
    <glyph glyph-name="grave" unicode="`" horiz-adv-x="12" 
d="M55 550l-130 130h106l46 -130h-22z" />
    <glyph glyph-name="a" unicode="a" horiz-adv-x="474" 
d="M441 0h-118v53c-63 -42 -113 -63 -166 -63c-94 0 -116 66 -116 104c0 63 49 100 83 120c17 10 52 29 141 63l58 22v42c0 27 1 53 -12 74c-10 16 -31 34 -63 34c-28 0 -59 -9 -76 -25c-29 -27 -15 -52 -25 -76s-28 -27 -38 -27c-24 0 -37 17 -37 39c0 26 15 58 61 84
s88 28 114 28c32 0 77 -5 108 -36c29 -28 30 -60 30 -86v-287c0 -15 0 -54 56 -53v-10zM323 76v200c-40 -14 -112 -48 -148 -76c-47 -36 -62 -78 -62 -107c0 -44 33 -69 71 -69c44 0 104 29 139 52z" />
    <glyph glyph-name="b" unicode="b" horiz-adv-x="520" 
d="M147 721v-316c28 39 77 67 127 67c52 0 113 -29 152 -82c33 -45 49 -105 49 -160c0 -54 -16 -117 -49 -160c-31 -41 -88 -80 -158 -80c-51 0 -81 16 -127 51l-34 -41h-22v609c0 43 -36 45 -50 44v13c38 5 71 27 90 55h22zM147 335v-215c0 -64 52 -107 117 -107
c61 0 139 36 139 215c0 177 -78 214 -138 214c-66 0 -118 -51 -118 -107z" />
    <glyph glyph-name="c" unicode="c" horiz-adv-x="452" 
d="M407 92l18 -16c-62 -77 -121 -86 -157 -86c-117 0 -223 94 -223 240c0 161 111 242 210 242c42 0 79 -14 107 -37c27 -22 41 -50 41 -75c0 -34 -24 -46 -40 -46c-17 0 -36 11 -43 34c-5 19 0 54 -12 74c-9 14 -30 27 -62 27c-56 0 -133 -30 -133 -178
c0 -169 93 -235 175 -235c42 0 87 17 119 56z" />
    <glyph glyph-name="d" unicode="d" horiz-adv-x="503" 
d="M412 721v-658c0 -15 0 -54 56 -53v-10h-118v41c-42 -37 -65 -51 -114 -51c-86 0 -133 63 -146 82c-30 43 -45 101 -45 158c0 12 1 95 45 160c36 53 93 82 141 82c38 0 86 -19 119 -67v202c0 13 0 49 -50 46v13c41 6 68 24 90 55h22zM350 120v215c0 58 -54 107 -106 107
c-35 0 -127 -15 -127 -214c0 -196 96 -215 129 -215c45 0 104 37 104 107z" />
    <glyph glyph-name="e" unicode="e" horiz-adv-x="472" 
d="M416 254h-298c-1 -9 -1 -17 -1 -26c0 -115 78 -193 179 -193c37 0 76 13 119 56l14 -12c-50 -56 -94 -89 -161 -89c-130 0 -223 107 -223 244c0 139 91 238 192 238c90 0 170 -80 179 -218zM118 277h233c-3 95 -56 172 -122 172c-56 0 -115 -62 -111 -172z" />
    <glyph glyph-name="f" unicode="f" horiz-adv-x="246" 
d="M232 472v-23h-76v-386c0 -15 0 -54 56 -53v-10h-174v10c56 -1 56 38 56 53v386h-71v23h71v41c0 16 -4 32 -7 48c-3 15 -5 30 -5 45c0 71 41 115 110 115c55 0 79 -29 79 -52c0 -13 -11 -32 -39 -32c-23 0 -36 9 -49 19c-10 7 -22 17 -39 17c-24 0 -35 -22 -35 -50
c0 -21 5 -45 19 -71c12 -23 27 -38 28 -80h76z" />
    <glyph glyph-name="g" unicode="g" horiz-adv-x="526" 
d="M119 -25v8c-31 6 -74 29 -74 82c0 43 36 82 78 98c-32 30 -62 74 -62 132c0 104 84 177 189 177c21 0 87 -3 146 -57c8 10 21 25 38 40c17 14 36 27 61 27c10 0 25 -2 37 -15c8 -8 11 -18 11 -29c0 -24 -18 -38 -37 -38c-7 0 -17 2 -32 11c-8 5 -17 11 -29 11
c-14 0 -27 -9 -36 -21c31 -37 36 -72 36 -99c0 -131 -108 -181 -200 -181c-44 0 -74 12 -99 27c-35 -14 -58 -40 -58 -60c0 -54 84 -67 135 -75l86 -13c76 -11 181 -17 181 -104c0 -54 -60 -128 -234 -128c-148 0 -221 54 -221 114c0 44 38 81 84 93zM252 449
c-62 0 -124 -50 -124 -156c0 -105 67 -149 127 -149c67 0 123 56 123 149c0 96 -57 156 -126 156zM144 -36c-40 -14 -57 -54 -57 -81c0 -54 67 -92 184 -92c93 0 161 43 161 85c0 51 -75 57 -140 66c-129 17 -50 10 -148 22z" />
    <glyph glyph-name="h" unicode="h" horiz-adv-x="529" 
d="M153 721v-317c89 62 162 68 198 68c87 0 87 -60 87 -89v-320c0 -15 0 -54 56 -53v-10h-174v10c56 -1 56 38 56 53v312c0 22 -2 57 -56 57c-61 0 -124 -27 -167 -58v-311c0 -15 1 -54 55 -53l1 -10h-174v10c56 -1 56 38 56 53v544c0 13 0 49 -50 46v13c41 6 68 24 90 55
h22z" />
    <glyph glyph-name="i" unicode="i" horiz-adv-x="252" 
d="M157 472v-409c0 -15 0 -54 56 -53v-10h-174v10c56 -1 56 38 56 53v295c0 13 0 49 -50 46v13c31 5 67 19 90 55h22zM74 619c0 27 22 49 49 49s49 -22 49 -49s-22 -49 -49 -49s-49 22 -49 49z" />
    <glyph glyph-name="j" unicode="j" horiz-adv-x="215" 
d="M155 472v-514c0 -48 3 -107 -38 -155c-22 -26 -48 -39 -83 -39c-32 0 -69 16 -69 52c0 30 23 40 42 40c16 0 35 -12 41 -25c4 -10 6 -24 27 -24c11 0 32 7 32 40c0 14 -3 27 -7 46c-4 16 -7 32 -7 53v412c0 13 0 49 -50 46v13c31 5 67 19 90 55h22zM72 619
c0 27 22 49 49 49s49 -22 49 -49s-22 -49 -49 -49s-49 22 -49 49z" />
    <glyph glyph-name="k" unicode="k" horiz-adv-x="487" 
d="M152 721v-523l190 199c7 7 15 16 15 26c0 23 -22 26 -33 28l-6 1v10h157v-10c-49 -14 -81 -37 -119 -78l-76 -81l135 -217c18 -29 49 -68 77 -66v-10h-174v10h7c22 0 35 11 35 26c0 8 -6 21 -10 27l-117 185l-81 -81v-105c0 -14 1 -53 55 -52l1 -10h-173v10
c54 -1 55 38 55 52v546c0 13 0 49 -49 46v12c40 5 70 22 90 55h21z" />
    <glyph glyph-name="l" unicode="l" horiz-adv-x="252" 
d="M157 721v-658c0 -15 0 -54 56 -53v-10h-174v10c56 -1 56 38 56 53v544c0 25 -1 41 -50 47v12c41 6 68 24 90 55h22z" />
    <glyph glyph-name="m" unicode="m" horiz-adv-x="816" 
d="M157 482v-81c54 31 149 71 201 71c40 0 79 -20 83 -71c92 52 159 71 214 71c44 0 70 -24 70 -65v-344c0 -15 0 -54 56 -53v-10h-174v10c56 -1 56 38 56 53v312c0 26 -2 57 -53 57c-50 0 -122 -28 -169 -54v-315c0 -15 0 -54 56 -53v-10h-174v10c56 -1 56 38 56 53v312
c0 25 0 57 -53 57c-69 0 -141 -37 -169 -54v-315c0 -15 0 -54 56 -53v-10h-174v10c56 -1 56 38 56 53v305c0 13 0 49 -50 46v13c31 5 67 19 90 55h22z" />
    <glyph glyph-name="n" unicode="n" horiz-adv-x="542" 
d="M157 482v-84c23 13 60 32 102 48c64 24 98 26 113 26s40 -3 56 -15c21 -16 23 -37 23 -53v-341c0 -15 0 -54 56 -53v-10h-174v10c56 -1 56 38 56 53v312c0 12 0 27 -7 38c-12 19 -37 19 -52 19c-24 0 -81 -7 -173 -57v-312c0 -15 0 -54 56 -53v-10h-174v10
c56 -1 56 38 56 53v305c0 13 0 49 -50 46v13c31 5 67 19 90 55h22z" />
    <glyph glyph-name="o" unicode="o" horiz-adv-x="498" 
d="M249 -10c-53 0 -113 25 -155 82c-33 45 -49 102 -49 159s16 114 49 159c42 57 102 82 155 82s113 -25 155 -82c33 -45 49 -102 49 -159s-16 -114 -49 -159c-42 -57 -102 -82 -155 -82zM249 13c43 0 90 29 113 88c14 36 19 99 19 130s-5 94 -19 130c-23 59 -70 88 -113 88
s-90 -29 -113 -88c-14 -36 -19 -99 -19 -130s5 -94 19 -130c23 -59 70 -88 113 -88z" />
    <glyph glyph-name="p" unicode="p" horiz-adv-x="514" 
d="M157 482v-68h7c40 48 86 58 121 58c108 0 184 -90 184 -222c0 -180 -115 -260 -205 -260c-60 0 -91 35 -102 48h-5v-201c0 -15 1 -54 55 -53l1 -10h-174v10c56 -1 56 38 56 53v531c0 13 0 49 -50 46v13c41 6 68 24 90 55h22zM157 343v-238c0 -39 51 -92 114 -92
c50 0 126 36 126 209c0 182 -70 220 -129 220c-62 0 -111 -54 -111 -99z" />
    <glyph glyph-name="q" unicode="q" horiz-adv-x="502" 
d="M413 482v-645c0 -15 0 -54 56 -53v-10h-174v10c56 -1 56 38 56 53v219h-4c-31 -45 -79 -66 -122 -66c-52 0 -108 23 -142 77c-26 41 -38 98 -38 150c0 56 14 117 41 163c45 76 111 92 153 92c17 0 62 -2 106 -36h4l45 46h19zM351 128v216c0 69 -57 105 -102 105
c-35 0 -83 -17 -111 -81c-12 -27 -21 -66 -21 -134c0 -82 14 -121 21 -136c23 -52 64 -78 102 -78c52 0 111 58 111 108z" />
    <glyph glyph-name="r" unicode="r" horiz-adv-x="341" 
d="M157 482v-67c65 55 115 57 137 57c37 0 62 -16 62 -48c0 -24 -18 -37 -39 -37c-16 0 -27 5 -41 13c-19 13 -24 18 -43 18c-42 0 -76 -20 -76 -49v-306c0 -15 0 -54 56 -53v-10h-174v10c56 -1 56 38 56 53v305c0 13 0 49 -50 46v13c41 6 68 24 90 55h22z" />
    <glyph glyph-name="s" unicode="s" horiz-adv-x="431" 
d="M350 353h-12c-4 19 -13 40 -26 56c-21 25 -54 40 -86 40c-22 0 -53 -7 -71 -20c-19 -13 -33 -36 -33 -62c0 -22 11 -37 21 -45c22 -18 78 -31 166 -75c45 -22 79 -48 79 -109c0 -88 -72 -148 -181 -148c-56 0 -106 14 -152 38l-5 106h12c19 -73 94 -121 159 -121
c74 0 116 43 116 92c0 52 -43 70 -86 88l-96 40c-77 32 -84 81 -84 101c0 50 22 83 43 101c25 22 65 37 114 37c41 0 87 -10 128 -27z" />
    <glyph glyph-name="t" unicode="t" horiz-adv-x="321" 
d="M268 467v-23h-101v-344c0 -28 0 -69 53 -69c20 0 45 13 56 33h16c-13 -27 -44 -74 -101 -74c-82 0 -86 62 -86 105v349h-86v23c59 3 89 49 100 73c9 18 21 52 25 160h23v-233h101z" />
    <glyph glyph-name="u" unicode="u" horiz-adv-x="543" 
d="M452 472v-409c0 -15 0 -54 56 -53v-10h-118v63c-59 -38 -125 -73 -193 -73c-106 0 -108 70 -108 92v276c0 13 0 49 -50 46v13c31 5 67 19 90 55h22v-374c0 -38 5 -75 69 -75c42 0 115 24 170 63v272c0 13 0 49 -50 46v13c31 5 67 19 90 55h22z" />
    <glyph glyph-name="v" unicode="v" horiz-adv-x="417" 
d="M225 73l112 313c15 41 -10 64 -38 66v10h149v-10c-57 -9 -74 -44 -90 -87l-141 -375h-25l-130 377c-18 53 -35 81 -77 85v10h185v-10c-21 0 -55 -7 -55 -38c0 -7 1 -15 4 -24z" />
    <glyph glyph-name="w" unicode="w" horiz-adv-x="672" 
d="M348 279l-102 -289h-27l-157 386c-24 59 -47 74 -77 76v10h184v-10c-24 -1 -46 -16 -46 -46c0 -10 8 -30 14 -44l112 -288l85 242l-27 72c-5 13 -23 57 -69 64v10h177v-10c-26 -2 -43 -22 -43 -45c0 -7 6 -27 10 -37l107 -296l102 293c3 8 7 28 7 34c0 18 -3 49 -51 50
v11h156v-11c-47 -8 -67 -35 -85 -86l-132 -375h-32z" />
    <glyph glyph-name="x" unicode="x" horiz-adv-x="437" 
d="M232 285l75 110c5 7 9 14 9 23c0 18 -15 35 -46 34v10h147v-10c-35 -4 -54 -26 -64 -40l-107 -148l128 -207c15 -24 40 -42 68 -47v-10h-172v10c26 0 40 17 40 29c0 3 -1 8 -9 21l-93 149l-103 -158c-18 -27 17 -43 42 -41v-10h-152v10c17 4 53 16 81 56l115 167l-94 158
c-7 12 -33 55 -81 61v10h175v-10c-21 3 -39 -8 -39 -27c0 -7 5 -16 7 -20z" />
    <glyph glyph-name="y" unicode="y" horiz-adv-x="448" 
d="M248 99l92 251c5 14 10 37 10 49c0 22 -13 52 -48 53v10h149v-10c-43 -8 -55 -56 -63 -76l-185 -489c-25 -65 -52 -107 -115 -107c-48 0 -81 24 -81 57c0 16 9 37 37 37c19 0 34 -7 48 -24c8 -10 12 -19 27 -19c14 0 27 12 44 55l48 119l-158 374c-24 57 -49 70 -72 73
v10h173v-10c-20 0 -43 -11 -43 -36c0 -10 5 -26 9 -35l124 -282h4z" />
    <glyph glyph-name="z" unicode="z" horiz-adv-x="446" 
d="M407 135h12l-48 -135h-340l291 436c-17 2 -35 3 -52 3c-43 0 -133 -7 -196 -100h-12l41 123h308l-293 -436c15 -2 30 -3 45 -3c55 0 109 6 162 37c32 19 60 45 82 75z" />
    <glyph glyph-name="braceleft" unicode="{" horiz-adv-x="408" 
d="M296 738l7 -33c-75 -15 -77 -84 -77 -104c0 -85 5 -67 5 -136c0 -31 -7 -147 -122 -195c115 -48 122 -164 122 -195c0 -57 -5 -85 -5 -131c0 -26 2 -94 77 -109l-7 -33c-82 13 -148 72 -148 174c0 41 4 32 4 101c0 53 -3 95 -20 123c-14 22 -40 42 -73 48v44
c33 6 59 26 73 48c17 28 20 70 20 123c0 69 -4 60 -4 101c0 102 66 161 148 174z" />
    <glyph glyph-name="bar" unicode="|" horiz-adv-x="174" 
d="M63 -190v890h48v-890h-48z" />
    <glyph glyph-name="braceright" unicode="}" horiz-adv-x="408" 
d="M112 -198l-7 33c75 15 77 84 77 104c0 85 -5 67 -5 136c0 31 7 147 122 195c-115 48 -122 164 -122 195c0 57 5 85 5 131c0 26 -2 94 -77 109l7 33c82 -13 148 -72 148 -174c0 -41 -4 -32 -4 -101c0 -53 3 -95 20 -123c14 -22 40 -42 73 -48v-44c-33 -6 -59 -26 -73 -48
c-17 -28 -20 -70 -20 -123c0 -69 4 -60 4 -101c0 -102 -66 -161 -148 -174z" />
    <glyph glyph-name="asciitilde" unicode="~" horiz-adv-x="546" 
d="M102 601h-42c21 75 93 113 141 113c34 0 74 -17 94 -24c57 -21 76 -24 85 -24c31 0 52 20 68 48h39c-18 -46 -63 -115 -136 -115c-31 0 -58 11 -88 22c-51 19 -76 28 -95 28c-39 0 -60 -34 -66 -48z" />
    <glyph glyph-name="afii10051" unicode="&#x402;" horiz-adv-x="789" 
d="M45 700h482l30 -134h-16c-28 53 -83 104 -161 104c-57 0 -56 -37 -56 -66v-192c80 29 148 35 207 35c124 0 198 -31 198 -196c0 -91 -7 -177 -70 -229c-36 -30 -76 -36 -119 -36c-92 0 -118 36 -118 64c0 23 21 30 34 30c23 0 38 -20 52 -36c10 -14 25 -30 54 -30
s47 18 59 45c14 31 16 71 16 144c0 139 1 216 -136 216c-41 0 -112 -9 -177 -35v-270c0 -27 -2 -80 60 -100v-14h-212v14c74 8 76 63 76 100v490c0 25 1 66 -56 66c-78 0 -133 -50 -161 -104h-16z" />
    <glyph glyph-name="afii10052" unicode="&#x403;" horiz-adv-x="547" 
d="M50 700h458l34 -135h-15c-35 73 -112 105 -170 105h-94c-54 0 -60 -38 -60 -68v-486c0 -33 -2 -100 77 -102v-14h-230v14c81 3 77 70 77 102v462c0 32 1 108 -77 108v14zM175 748l75 92h121v-21l-175 -71h-21z" />
    <glyph glyph-name="quotesinglbase" unicode="&#x201a;" horiz-adv-x="271" 
d="M104 -162l-11 12c12 10 29 27 40 46c14 24 15 45 15 57c0 31 -20 30 -40 36c-7 2 -13 5 -18 10c-13 12 -15 24 -15 33c0 31 18 54 50 54c37 0 71 -24 71 -83c0 -61 -37 -126 -92 -165z" />
    <glyph glyph-name="afii10100" unicode="&#x453;" horiz-adv-x="396" 
d="M39 462h323l29 -125h-12c-41 90 -105 103 -162 102c-54 -1 -60 -26 -60 -50v-326c0 -15 0 -54 56 -53v-10h-174v10c56 -1 56 38 56 53v336c0 15 0 54 -56 53v10zM139 550h-22l46 130h106z" />
    <glyph glyph-name="quotedblbase" unicode="&#x201e;" horiz-adv-x="472" 
d="M104 -162l-11 12c12 10 29 27 40 46c14 24 15 45 15 57c0 31 -20 30 -40 36c-7 2 -13 5 -18 10c-13 12 -15 24 -15 33c0 31 18 54 50 54c37 0 71 -24 71 -83c0 -61 -37 -126 -92 -165zM305 -162l-11 12c12 10 29 27 40 46c14 24 15 45 15 57c0 42 -27 19 -58 46
c-13 12 -15 24 -15 33c0 31 18 54 50 54c37 0 71 -24 71 -83c0 -61 -37 -126 -92 -165z" />
    <glyph glyph-name="ellipsis" unicode="&#x2026;" horiz-adv-x="610" 
d="M55 35c0 27 23 50 50 50s50 -23 50 -50s-23 -50 -50 -50s-50 23 -50 50zM255 35c0 27 23 50 50 50s50 -23 50 -50s-23 -50 -50 -50s-50 23 -50 50zM455 35c0 27 23 50 50 50s50 -23 50 -50s-23 -50 -50 -50s-50 23 -50 50z" />
    <glyph glyph-name="dagger" unicode="&#x2020;" horiz-adv-x="630" 
d="M327 -166h-24c-5 130 -19 258 -30 323c-7 41 -16 78 -38 123c12 18 32 52 41 70c11 24 18 55 18 79c0 16 -6 19 -17 19c-17 0 -34 -7 -56 -18c-29 -14 -47 -24 -64 -24c-18 0 -52 12 -52 54c0 44 35 52 55 52c23 0 41 -10 73 -22c21 -8 35 -11 49 -11c10 0 13 2 13 26
c0 20 -6 33 -16 63c-14 42 -24 63 -24 86c0 28 10 60 60 60s60 -32 60 -60c0 -23 -10 -44 -24 -86c-10 -30 -16 -43 -16 -63c0 -24 3 -26 13 -26c14 0 28 3 49 11c32 12 50 22 73 22c20 0 55 -8 55 -52c0 -42 -34 -54 -52 -54c-17 0 -35 10 -64 24c-22 11 -39 18 -56 18
c-11 0 -17 -3 -17 -19c0 -7 -3 -34 18 -78c9 -20 29 -53 41 -71c-19 -41 -30 -78 -38 -124c-14 -79 -26 -215 -30 -322z" />
    <glyph glyph-name="daggerdbl" unicode="&#x2021;" horiz-adv-x="630" 
d="M315 -166c-50 0 -60 32 -60 61c0 22 10 45 24 87c8 25 16 40 16 64s-3 26 -13 26c-14 0 -28 -3 -49 -11c-32 -12 -50 -22 -73 -22c-20 0 -55 8 -55 53c0 42 33 54 52 54c17 0 35 -10 64 -24c22 -11 39 -18 56 -18c11 0 17 3 17 19c0 7 2 34 -18 79c-10 22 -28 52 -41 72
c13 20 31 50 41 72c20 45 18 72 18 79c0 16 -6 19 -17 19c-17 0 -34 -7 -56 -18c-29 -14 -47 -24 -64 -24c-19 0 -52 12 -52 54c0 45 35 53 55 53c23 0 41 -10 73 -22c21 -8 35 -11 49 -11c10 0 13 2 13 26s-8 39 -16 64c-14 42 -24 65 -24 87c0 29 10 61 60 61
s60 -32 60 -61c0 -22 -10 -45 -24 -87c-8 -25 -16 -40 -16 -64s3 -26 13 -26c14 0 28 3 49 11c32 12 50 22 73 22c20 0 55 -8 55 -53c0 -42 -33 -54 -52 -54c-17 0 -35 10 -64 24c-22 11 -39 18 -56 18c-11 0 -17 -3 -17 -19c0 -7 -2 -34 18 -79c10 -22 28 -52 41 -72
c-13 -20 -31 -50 -41 -72c-20 -45 -18 -72 -18 -79c0 -16 6 -19 17 -19c17 0 34 7 56 18c29 14 47 24 64 24c19 0 52 -12 52 -54c0 -45 -35 -53 -55 -53c-23 0 -41 10 -73 22c-21 8 -35 11 -49 11c-10 0 -13 -2 -13 -26s8 -39 16 -64c14 -42 24 -65 24 -87
c0 -29 -10 -61 -60 -61z" />
    <glyph glyph-name="accent" horiz-adv-x="12" 
d="M-239 550h-22l46 130h106z" />
    <glyph glyph-name="perthousand" unicode="&#x2030;" horiz-adv-x="1424" 
d="M294 -149l-23 13l493 971l25 -12zM138 556c0 119 82 185 167 185s167 -66 167 -185s-82 -185 -167 -185s-167 66 -167 185zM215 556c0 -41 0 -76 15 -111c9 -20 27 -50 75 -50s66 30 75 50c15 35 15 70 15 111s0 76 -15 111c-9 20 -27 50 -75 50s-66 -30 -75 -50
c-15 -35 -15 -70 -15 -111zM581 125c0 119 82 185 167 185s167 -66 167 -185s-82 -185 -167 -185s-167 66 -167 185zM658 125c0 -41 0 -76 15 -111c9 -20 27 -50 75 -50s66 30 75 50c15 35 15 70 15 111s0 76 -15 111c-9 20 -27 50 -75 50s-66 -30 -75 -50
c-15 -35 -15 -70 -15 -111zM1015 125c0 119 82 185 167 185s167 -66 167 -185s-82 -185 -167 -185s-167 66 -167 185zM1092 125c0 -41 0 -76 15 -111c9 -20 27 -50 75 -50s66 30 75 50c15 35 15 70 15 111s0 76 -15 111c-9 20 -27 50 -75 50s-66 -30 -75 -50
c-15 -35 -15 -70 -15 -111z" />
    <glyph glyph-name="afii10058" unicode="&#x409;" horiz-adv-x="1075" 
d="M178 700h513v-14c-74 -8 -76 -63 -76 -100v-171c40 11 78 16 118 16c60 0 122 -12 176 -43c96 -55 116 -131 116 -193c0 -58 -18 -104 -66 -144c-38 -31 -90 -51 -144 -51h-353v14c81 8 77 73 77 100v470c0 74 -29 86 -70 86h-72c-46 0 -77 -12 -88 -55
c-8 -31 -4 -64 -23 -229c-27 -239 -54 -313 -75 -347c-26 -42 -57 -53 -102 -53c-72 0 -104 60 -104 117c0 40 19 88 63 88c42 0 46 -37 46 -48c0 -23 -11 -41 -23 -56c-9 -11 -19 -25 -19 -39c0 -16 19 -32 42 -32c62 0 81 80 96 143c15 64 26 137 38 235
c7 56 15 132 13 194c-1 26 -5 94 -83 98v14zM615 387v-273c0 -27 -4 -67 40 -81c7 -2 24 -6 70 -6c52 0 107 9 152 51c32 29 56 73 56 122c0 73 -44 149 -137 182c-31 11 -63 16 -95 16c-29 0 -57 -3 -86 -11z" />
    <glyph glyph-name="guilsinglleft" unicode="&#x2039;" horiz-adv-x="394" 
d="M65 273l202 203l22 -22l-182 -181l182 -181l-22 -22z" />
    <glyph glyph-name="afii10059" unicode="&#x40a;" horiz-adv-x="1106" 
d="M50 700h228v-14c-74 -8 -76 -63 -76 -100v-194h378v194c0 37 -2 92 -76 100v14h228v-14c-74 -8 -76 -63 -76 -100v-171c40 11 78 16 118 16c60 0 122 -12 176 -43c96 -55 116 -131 116 -193c0 -58 -18 -104 -66 -144c-38 -31 -90 -51 -144 -51h-353v14c81 8 77 73 77 100
v250h-378v-250c0 -37 2 -92 76 -100v-14h-228v14c74 8 76 63 76 100v472c0 37 -2 92 -76 100v14zM656 387v-273c0 -32 -5 -67 40 -81c7 -2 25 -6 70 -6c52 0 106 9 152 51c32 29 56 73 56 122c0 73 -44 149 -137 182c-31 11 -63 16 -95 16c-29 0 -57 -3 -86 -11z" />
    <glyph glyph-name="afii10061" unicode="&#x40c;" horiz-adv-x="665" 
d="M50 700h228v-14c-74 -8 -76 -63 -76 -100v-282l247 266c13 14 32 41 32 65c0 19 -9 52 -63 51v14h224v-14c-15 -3 -58 -14 -107 -66l-171 -184c21 -45 66 -141 102 -208c102 -189 177 -265 234 -311l-13 -17c-48 30 -96 67 -159 134c-90 96 -161 201 -233 328l-93 -99
v-149c0 -37 2 -92 76 -100v-14h-228v14c74 8 76 63 76 100v472c0 37 -2 92 -76 100v14zM234 748l75 92h121v-21l-175 -71h-21z" />
    <glyph glyph-name="afii10060" unicode="&#x40b;" horiz-adv-x="817" 
d="M45 700h482l30 -134h-16c-29 56 -85 104 -161 104c-57 0 -56 -37 -56 -66v-191c81 21 137 31 198 31c46 0 174 -6 174 -129v-201c0 -37 2 -92 76 -100v-14h-228v14c74 8 76 63 76 100v184c0 17 1 45 -18 71c-31 41 -86 41 -115 41c-49 0 -100 -4 -163 -24v-272
c0 -37 2 -92 76 -100v-14h-228v14c74 8 76 63 76 100v490c0 24 1 66 -56 66c-32 0 -109 -7 -161 -104h-16z" />
    <glyph glyph-name="afii10145" unicode="&#x40f;" horiz-adv-x="779" 
d="M45 700h228v-14c-82 -10 -76 -77 -76 -100v-475c0 -33 -8 -81 84 -81h217c92 0 84 48 84 81v475c0 23 6 90 -76 100v14h228v-14c-82 -10 -76 -77 -76 -100v-472c0 -25 0 -93 76 -100v-14h-163c-78 0 -152 -50 -160 -170l-2 -31h-39l-3 31c-2 25 -15 170 -160 170h-162v14
c76 8 76 72 76 100v472c0 23 6 90 -76 100v14z" />
    <glyph glyph-name="afii10099" unicode="&#x452;" horiz-adv-x="513" 
d="M153 721v-150h182v-32h-182v-135c64 46 139 68 196 68c97 0 104 -73 104 -213c0 -165 1 -357 -100 -430c-23 -17 -50 -25 -75 -25c-52 0 -66 35 -66 53c0 22 18 38 41 38c16 0 30 -9 39 -19s19 -27 33 -27c67 0 56 250 56 366c0 153 -1 217 -70 217
c-52 0 -120 -30 -158 -57v-312c0 -15 0 -54 56 -53v-10h-174v10c56 -1 56 38 56 53v476h-76v32h76v36c0 13 0 49 -50 46v13c41 6 68 24 90 55h22z" />
    <glyph glyph-name="quoteleft" unicode="&#x2018;" horiz-adv-x="271" 
d="M167 714l11 -12c-12 -10 -29 -27 -40 -46c-14 -24 -15 -45 -15 -57c0 -31 20 -30 40 -36c7 -2 13 -5 18 -10c13 -12 15 -24 15 -33c0 -31 -18 -54 -50 -54c-37 0 -71 24 -71 83c0 61 37 126 92 165z" />
    <glyph glyph-name="quoteright" unicode="&#x2019;" horiz-adv-x="271" 
d="M104 466l-11 12c12 10 29 27 40 46c14 24 15 45 15 57c0 31 -20 30 -40 36c-7 2 -13 5 -18 10c-13 12 -15 24 -15 33c0 31 18 54 50 54c37 0 71 -24 71 -83c0 -61 -37 -126 -92 -165z" />
    <glyph glyph-name="quotedblleft" unicode="&#x201c;" horiz-adv-x="472" 
d="M167 714l11 -12c-12 -10 -29 -27 -40 -46c-14 -24 -15 -45 -15 -57c0 -31 20 -30 40 -36c7 -2 13 -5 18 -10c13 -12 15 -24 15 -33c0 -31 -18 -54 -50 -54c-37 0 -71 24 -71 83c0 61 37 126 92 165zM368 714l11 -12c-12 -10 -29 -27 -40 -46c-14 -24 -15 -45 -15 -57
c0 -42 27 -19 58 -46c13 -12 15 -24 15 -33c0 -31 -18 -54 -50 -54c-37 0 -71 24 -71 83c0 61 37 126 92 165z" />
    <glyph glyph-name="quotedblright" unicode="&#x201d;" horiz-adv-x="472" 
d="M104 466l-11 12c12 10 29 27 40 46c14 24 15 45 15 57c0 31 -20 30 -40 36c-7 2 -13 5 -18 10c-13 12 -15 24 -15 33c0 31 18 54 50 54c37 0 71 -24 71 -83c0 -61 -37 -126 -92 -165zM305 466l-11 12c12 10 29 27 40 46c14 24 15 45 15 57c0 42 -27 19 -58 46
c-13 12 -15 24 -15 33c0 31 18 54 50 54c37 0 71 -24 71 -83c0 -61 -37 -126 -92 -165z" />
    <glyph glyph-name="bullet" unicode="&#x2022;" horiz-adv-x="708" 
d="M255 353c0 64 54 100 98 100c56 0 100 -48 100 -100c0 -51 -43 -98 -100 -98c-45 0 -98 35 -98 98z" />
    <glyph glyph-name="endash" unicode="&#x2013;" horiz-adv-x="830" 
d="M105 344h620v-48h-620v48z" />
    <glyph glyph-name="emdash" unicode="&#x2014;" horiz-adv-x="1158" 
d="M105 344h948v-48h-948v48z" />
    <glyph glyph-name="Accent" horiz-adv-x="12" 
d="M-400 748l75 92h121v-21l-175 -71h-21z" />
    <glyph glyph-name="trademark" unicode="&#x2122;" horiz-adv-x="958" 
d="M121 700h252l16 -70h-7c-16 30 -51 56 -91 56c-19 0 -26 -5 -26 -33v-259c0 -19 -1 -54 41 -55v-8h-118v8c42 1 41 36 41 55v259c0 28 -7 33 -26 33c-40 0 -75 -26 -91 -56h-7zM608 435l100 265h81v-7h-3c-10 0 -40 -3 -31 -49l49 -259c5 -25 24 -44 49 -46v-8h-131v8
c20 -1 47 9 40 44l-54 275l-106 -287h-18l-93 278l-52 -262c-5 -24 2 -45 38 -48v-8h-98v8c33 4 41 30 44 43l51 258c7 35 -12 54 -35 53v7h82z" />
    <glyph glyph-name="afii10106" unicode="&#x459;" horiz-adv-x="724" 
d="M135 462h339v-10c-56 1 -56 -38 -56 -53v-139c28 6 56 9 84 9c48 0 107 -8 153 -49c29 -26 44 -58 44 -101c0 -35 -14 -58 -27 -73c-20 -24 -57 -46 -119 -46h-253v10c56 -1 56 38 56 53v336c0 13 -1 40 -42 40h-47c-34 0 -36 -19 -44 -81c-8 -68 -14 -120 -24 -185
c-12 -78 -23 -135 -53 -162c-11 -10 -30 -21 -61 -21c-56 0 -80 38 -80 82c0 40 22 67 50 67c19 0 37 -14 37 -41c0 -13 -1 -26 -13 -42c-4 -6 -10 -13 -10 -23c0 -4 4 -16 21 -16c56 0 67 86 83 195c9 63 14 110 15 168c1 72 -43 72 -53 72v10zM418 237v-166
c0 -22 -1 -48 77 -48c46 0 132 8 132 112c0 25 -5 57 -35 83c-31 26 -70 28 -88 28c-30 0 -64 -5 -86 -9z" />
    <glyph glyph-name="guilsinglright" unicode="&#x203a;" horiz-adv-x="394" 
d="M329 273l-202 -203l-22 22l182 181l-182 181l22 22z" />
    <glyph glyph-name="afii10107" unicode="&#x45a;" horiz-adv-x="731" 
d="M39 462h174v-10c-56 1 -56 -38 -56 -53v-150h206v150c0 15 0 54 -56 53v10h174v-10c-56 1 -56 -38 -56 -53v-139c28 6 56 9 84 9c48 0 107 -8 153 -49c29 -26 44 -58 44 -101c0 -35 -14 -58 -27 -73c-20 -24 -57 -46 -119 -46h-253v10c56 -1 56 38 56 53v163h-206v-163
c0 -15 0 -54 56 -53v-10h-174v10c56 -1 56 38 56 53v336c0 15 0 54 -56 53v10zM425 237v-166c0 -43 23 -48 71 -48c26 0 52 0 76 10c25 11 62 37 62 102c0 25 -5 57 -35 83c-31 26 -70 28 -88 28c-30 0 -64 -5 -86 -9z" />
    <glyph glyph-name="afii10109" unicode="&#x45c;" horiz-adv-x="490" 
d="M39 462h174v-10c-56 1 -56 -38 -56 -53v-198l191 201c4 5 10 13 10 20c0 13 -14 28 -39 30v10h148v-10c-22 -8 -50 -22 -88 -62l-96 -100l141 -226c18 -28 37 -47 68 -54v-10h-173v10h6c13 0 35 9 35 29c0 12 -6 19 -10 26l-113 181l-80 -83v-100c0 -15 0 -54 56 -53v-10
h-174v10c56 -1 56 38 56 53v336c0 15 0 54 -56 53v10zM186 550h-22l46 130h106z" />
    <glyph glyph-name="afii10108" unicode="&#x45b;" horiz-adv-x="529" 
d="M153 721v-150h182v-32h-182v-135c89 62 162 68 198 68c87 0 87 -60 87 -89v-320c0 -15 0 -54 56 -53v-10h-174v10c56 -1 56 38 56 53v312c0 22 -2 57 -56 57c-61 0 -124 -27 -167 -58v-311c0 -15 0 -54 56 -53v-10h-174v10c56 -1 56 38 56 53v476h-76v32h76v36
c0 13 0 49 -50 46v13c41 6 68 24 90 55h22z" />
    <glyph glyph-name="afii10193" unicode="&#x45f;" horiz-adv-x="532" 
d="M39 462h174v-10c-56 1 -56 -38 -56 -53v-323c0 -10 1 -53 54 -53h110c53 0 54 43 54 53v323c0 15 0 54 -56 53v10h174v-10c-56 1 -56 -38 -56 -53v-336c0 -15 0 -54 56 -53v-10h-73c-122 0 -142 -85 -138 -138h-32c6 72 -35 138 -138 138h-73v10c56 -1 56 38 56 53v336
c0 15 0 54 -56 53v10z" />
    <glyph glyph-name="afii10062" unicode="&#x40e;" horiz-adv-x="646" 
d="M392 227l130 343c11 28 13 45 13 57c0 28 -15 53 -69 59v14h195v-14c-73 -21 -92 -78 -105 -112l-178 -476c-7 -20 -22 -53 -49 -78c-29 -27 -59 -34 -96 -34c-91 0 -143 69 -143 143c0 55 33 72 54 72c19 0 44 -12 44 -48c0 -19 -5 -29 -12 -40c-7 -12 -18 -26 -18 -42
c0 -26 32 -55 77 -55c25 0 61 7 88 42c17 22 29 54 34 68l-238 466c-17 34 -37 80 -104 94v14h217v-14c-38 0 -53 -20 -53 -40c0 -12 8 -22 13 -32zM323 742c-37 0 -74 7 -101 22c-38 21 -50 50 -50 79c0 19 5 38 16 50c12 14 27 15 37 15c31 0 36 -20 36 -33
c0 -9 -3 -21 -10 -28c-5 -6 -16 -10 -23 -12c-8 -2 -16 -3 -16 -12s11 -22 20 -28c22 -15 69 -21 91 -21s69 6 91 21c9 6 20 19 20 28s-8 10 -16 12c-7 2 -18 6 -23 12c-7 7 -10 19 -10 28c0 13 5 33 36 33c10 0 25 -1 37 -15c11 -12 16 -31 16 -50c0 -29 -12 -58 -50 -79
c-27 -15 -64 -22 -101 -22z" />
    <glyph glyph-name="afii10110" unicode="&#x45e;" horiz-adv-x="448" 
d="M248 99l92 251c5 14 10 37 10 49c0 22 -13 52 -48 53v10h149v-10c-43 -8 -55 -56 -63 -76l-185 -489c-25 -65 -52 -107 -115 -107c-48 0 -81 24 -81 57c0 16 9 37 37 37c19 0 34 -7 48 -24c8 -10 12 -19 27 -19c14 0 27 12 44 55l48 119l-158 374c-24 57 -49 70 -72 73
v10h173v-10c-20 0 -43 -11 -43 -36c0 -10 5 -26 9 -35l124 -282h4zM224 537c-11 0 -32 2 -50 9c-27 11 -56 39 -56 84c0 33 19 52 40 52c17 0 33 -10 33 -30c0 -10 -4 -23 -16 -34c-7 -6 -15 -11 -15 -21c0 -9 8 -21 16 -27c12 -9 30 -12 48 -12s36 3 48 12c8 6 16 18 16 27
c0 10 -8 15 -15 21c-12 11 -16 24 -16 34c0 20 16 30 33 30c21 0 40 -19 40 -52c0 -45 -29 -73 -56 -84c-18 -7 -39 -9 -50 -9z" />
    <glyph glyph-name="afii10057" unicode="&#x408;" horiz-adv-x="472" 
d="M194 700h228v-14c-74 -8 -76 -63 -76 -100v-392c0 -57 -5 -97 -34 -138c-32 -47 -77 -70 -135 -70c-43 0 -92 18 -125 49c-31 29 -37 57 -37 79c0 30 17 47 44 47c15 0 49 -5 52 -73c2 -33 6 -72 65 -72c41 0 64 18 77 36c17 25 17 59 17 80v454c0 37 -2 92 -76 100v14z
" />
    <glyph glyph-name="currency" unicode="&#xa4;" horiz-adv-x="750" 
d="M65 89l73 72c-31 33 -69 91 -69 189s38 156 69 189l-73 72l49 49l73 -73c58 53 128 69 188 69s130 -16 188 -69l73 73l49 -49l-73 -72c31 -33 69 -91 69 -189s-38 -156 -69 -189l73 -72l-49 -49l-73 73c-58 -53 -128 -69 -188 -69s-130 16 -188 69l-73 -73zM125 350
c0 -139 111 -250 250 -250s250 111 250 250s-111 250 -250 250s-250 -111 -250 -250z" />
    <glyph glyph-name="afii10050" unicode="&#x490;" horiz-adv-x="515" 
d="M50 700h285c57 0 142 7 190 106h15l-35 -136h-242c-54 0 -60 -35 -60 -70v-484c0 -33 -2 -100 77 -102v-14h-230v14c81 3 77 70 77 102v464c0 30 1 106 -77 106v14z" />
    <glyph glyph-name="brokenbar" unicode="&#xa6;" horiz-adv-x="174" 
d="M111 700v-394h-48v394h48zM63 -190v394h48v-394h-48z" />
    <glyph glyph-name="section" unicode="&#xa7;" horiz-adv-x="592" 
d="M150 515c-7 17 -12 35 -12 52c0 25 5 53 19 74c21 33 66 59 123 59c32 0 62 -10 86 -23c42 -23 61 -51 61 -75c0 -18 -12 -29 -29 -29c-30 0 -43 30 -50 49c-7 20 -20 56 -72 56c-20 0 -48 -7 -68 -38c-11 -18 -13 -33 -13 -44c0 -32 18 -73 94 -147l112 -110
c71 -70 86 -120 86 -154c0 -55 -43 -116 -94 -152c8 -18 21 -54 21 -91c0 -74 -57 -151 -162 -151c-75 0 -154 40 -154 98c0 24 15 38 33 38c32 0 39 -22 48 -47c9 -28 28 -67 85 -67c59 0 91 50 91 97c0 42 -17 70 -50 108c-77 89 -185 171 -222 236c-17 29 -28 67 -28 96
c0 58 31 125 95 165zM206 238l113 -114c24 -25 40 -41 63 -72c43 23 49 64 49 89c0 29 -7 52 -75 125l-134 144c-25 27 -46 54 -66 87c-30 -18 -45 -48 -45 -83c0 -78 56 -137 95 -176z" />
    <glyph glyph-name="afii10023" unicode="&#x401;" horiz-adv-x="646" 
d="M50 700h510l22 -137h-22c-8 18 -24 49 -44 68c-22 21 -58 39 -101 39h-150c-38 0 -63 -23 -63 -65v-208h193c19 0 50 3 67 29c9 13 11 30 10 43h16v-174h-16c1 13 -1 30 -10 43c-17 26 -48 29 -67 29h-193v-275c0 -12 2 -62 70 -62h142c41 0 123 0 176 111h16l-24 -141
h-532v14c75 7 76 62 76 100v472c0 38 -1 93 -76 100v14zM175 826c0 30 26 56 56 56s56 -26 56 -56s-26 -56 -56 -56s-56 26 -56 56zM379 826c0 30 26 56 56 56s56 -26 56 -56s-26 -56 -56 -56s-56 26 -56 56z" />
    <glyph glyph-name="copyright" unicode="&#xa9;" horiz-adv-x="938" 
d="M105 350c0 200 164 364 364 364s364 -164 364 -364s-164 -364 -364 -364s-364 164 -364 364zM140 350c0 -182 147 -329 329 -329s329 147 329 329s-147 329 -329 329s-329 -147 -329 -329zM583 463h-13c-13 39 -52 66 -97 66s-79 -29 -97 -55c-25 -35 -32 -83 -32 -121
c0 -19 2 -66 26 -108c28 -48 73 -69 115 -69c52 0 92 38 104 86h12v-74c-35 -23 -76 -35 -111 -35c-71 0 -143 33 -178 83c-21 30 -35 74 -35 116c0 60 24 118 68 154c38 31 94 46 139 46c37 0 73 -10 99 -19v-70z" />
    <glyph glyph-name="afii10053" unicode="&#x404;" horiz-adv-x="693" 
d="M619 520h-14c-17 57 -50 93 -79 115c-44 33 -88 43 -133 43c-47 0 -108 -13 -165 -78c-58 -66 -71 -141 -76 -251c21 23 41 38 76 58c31 18 51 26 84 26c10 0 20 -1 29 -3c14 -4 28 -11 41 -18c19 -10 56 -28 87 -28c21 0 46 5 72 33l11 -10c-37 -42 -81 -85 -138 -85
c-27 0 -46 12 -95 32c-18 8 -43 18 -68 18c-34 0 -79 -29 -99 -64c5 -67 29 -143 70 -197c53 -70 118 -95 195 -95c49 0 96 10 143 54c24 22 50 56 64 102h14v-140c-71 -35 -146 -46 -201 -46c-80 0 -181 24 -269 115c-60 61 -108 149 -108 259c0 81 29 161 95 233
c83 91 182 121 267 121c25 0 92 -5 197 -60v-134z" />
    <glyph glyph-name="guillemotleft" unicode="&#xab;" horiz-adv-x="576" 
d="M65 273l202 203l22 -22l-182 -181l182 -181l-22 -22zM247 273l202 203l22 -22l-182 -181l182 -181l-22 -22z" />
    <glyph glyph-name="logicalnot" unicode="&#xac;" horiz-adv-x="816" 
d="M711 344v-189h-48v141h-558v48h606z" />
    <glyph glyph-name="hyphen" unicode="-" horiz-adv-x="408" 
d="M105 216v56h198v-56h-198z" />
    <glyph glyph-name="hyphen" unicode="&#xad;" horiz-adv-x="408" 
d="M105 216v56h198v-56h-198z" />
    <glyph glyph-name="registered" unicode="&#xae;" horiz-adv-x="938" 
d="M105 350c0 200 164 364 364 364s364 -164 364 -364s-164 -364 -364 -364s-364 164 -364 364zM140 350c0 -182 147 -329 329 -329s329 147 329 329s-147 329 -329 329s-329 -147 -329 -329zM300 552h189c119 0 143 -62 143 -108c0 -59 -38 -111 -105 -120
c28 -118 110 -203 118 -211l-18 -15c-73 55 -118 121 -157 216c-6 0 -13 1 -19 1c-22 1 -31 1 -53 4v-102c0 -21 1 -52 43 -57v-8h-141v8c43 4 44 36 44 57v270c0 21 -1 53 -44 57v8zM398 335c13 -2 27 -2 40 -2c22 0 134 1 134 105c0 64 -52 97 -124 97
c-52 0 -50 -34 -50 -45v-155z" />
    <glyph glyph-name="afii10056" unicode="&#x407;" horiz-adv-x="328" 
d="M50 700h228v-14c-74 -8 -76 -63 -76 -100v-472c0 -37 2 -92 76 -100v-14h-228v14c74 8 76 63 76 100v472c0 37 -2 92 -76 100v14zM21 826c0 30 26 56 56 56s56 -26 56 -56s-26 -56 -56 -56s-56 26 -56 56zM195 826c0 30 26 56 56 56s56 -26 56 -56s-26 -56 -56 -56
s-56 26 -56 56z" />
    <glyph glyph-name="degree" unicode="&#xb0;" horiz-adv-x="246" 
d="M31 638c0 51 41 92 92 92s92 -41 92 -92s-41 -92 -92 -92s-92 41 -92 92zM58 638c0 -36 29 -65 65 -65s65 29 65 65s-29 65 -65 65s-65 -29 -65 -65z" />
    <glyph glyph-name="plusminus" unicode="&#xb1;" horiz-adv-x="816" 
d="M105 344h279v279h48v-279h279v-48h-279v-279h-48v279h-279v48zM123 -119v48h586v-48h-586z" />
    <glyph glyph-name="afii10055" unicode="&#x406;" horiz-adv-x="328" 
d="M50 700h228v-14c-74 -8 -76 -63 -76 -100v-472c0 -37 2 -92 76 -100v-14h-228v14c74 8 76 63 76 100v472c0 37 -2 92 -76 100v14z" />
    <glyph glyph-name="afii10103" unicode="&#x456;" horiz-adv-x="252" 
d="M157 472v-409c0 -15 0 -54 56 -53v-10h-174v10c56 -1 56 38 56 53v295c0 13 0 49 -50 46v13c31 5 67 19 90 55h22zM74 619c0 27 22 49 49 49s49 -22 49 -49s-22 -49 -49 -49s-49 22 -49 49z" />
    <glyph glyph-name="afii10098" unicode="&#x491;" horiz-adv-x="362" 
d="M35 462h151c33 0 78 0 116 29c25 19 42 51 50 72h12l-29 -124h-132c-29 0 -50 -18 -50 -50v-326c0 -15 0 -54 56 -53v-10h-174v10c56 -1 56 38 56 53v336c0 15 0 54 -56 53v10z" />
    <glyph glyph-name="mu" unicode="&#xb5;" horiz-adv-x="566" 
d="M456 472v-409c0 -15 0 -54 56 -53v-10h-118v59h-3c-2 -3 -21 -28 -45 -45c-23 -17 -46 -25 -71 -25c-58 0 -90 20 -106 36h-4c-1 -26 1 -44 6 -77c5 -34 9 -56 9 -95c0 -23 0 -89 -46 -89c-44 0 -48 55 -48 89c0 30 2 47 6 72c6 34 12 67 12 105v328c0 13 0 49 -50 46v13
c31 5 67 19 90 55h22v-342c0 -28 13 -53 31 -68c19 -15 51 -23 81 -23c24 0 48 8 67 20c16 10 36 28 49 43v256c0 13 0 49 -50 46v13c31 5 67 19 90 55h22z" />
    <glyph glyph-name="mu" unicode="&#x3bc;" horiz-adv-x="566" 
d="M456 472v-409c0 -15 0 -54 56 -53v-10h-118v59h-3c-2 -3 -21 -28 -45 -45c-23 -17 -46 -25 -71 -25c-58 0 -90 20 -106 36h-4c-1 -26 1 -44 6 -77c5 -34 9 -56 9 -95c0 -23 0 -89 -46 -89c-44 0 -48 55 -48 89c0 30 2 47 6 72c6 34 12 67 12 105v328c0 13 0 49 -50 46v13
c31 5 67 19 90 55h22v-342c0 -28 13 -53 31 -68c19 -15 51 -23 81 -23c24 0 48 8 67 20c16 10 36 28 49 43v256c0 13 0 49 -50 46v13c31 5 67 19 90 55h22z" />
    <glyph glyph-name="paragraph" unicode="&#xb6;" horiz-adv-x="630" 
d="M330 750v-964h-70v708h-14c-76 0 -141 43 -141 128s65 128 141 128h84zM455 750h70v-964h-70v964z" />
    <glyph glyph-name="periodcentered" unicode="&#xb7;" horiz-adv-x="610" 
d="M255 353c0 27 23 50 50 50s50 -23 50 -50s-23 -50 -50 -50s-50 23 -50 50z" />
    <glyph glyph-name="periodcentered" unicode="&#x2219;" horiz-adv-x="610" 
d="M255 353c0 27 23 50 50 50s50 -23 50 -50s-23 -50 -50 -50s-50 23 -50 50z" />
    <glyph glyph-name="afii10071" unicode="&#x451;" horiz-adv-x="472" 
d="M416 254h-298c-1 -9 -1 -17 -1 -26c0 -115 78 -193 179 -193c37 0 76 13 119 56l14 -12c-50 -56 -94 -89 -161 -89c-130 0 -223 107 -223 244c0 139 91 238 192 238c90 0 170 -80 179 -218zM118 277h233c-3 95 -56 172 -122 172c-56 0 -115 -62 -111 -172zM101 611
c0 34 28 49 49 49c24 0 49 -21 49 -49c0 -26 -23 -49 -49 -49c-23 0 -49 18 -49 49zM249 611c0 34 28 49 49 49c24 0 49 -21 49 -49c0 -26 -23 -49 -49 -49c-23 0 -49 18 -49 49z" />
    <glyph glyph-name="afii61352" unicode="&#x2116;" horiz-adv-x="1129" 
d="M159 700h145l311 -569v471c0 105 69 112 97 112c48 0 95 -41 95 -109c0 -33 -14 -57 -41 -57c-22 0 -33 18 -33 38c0 24 14 48 14 61c0 20 -11 39 -37 39c-15 0 -65 -1 -65 -80v-606h-39l-340 623v-481c0 -117 -53 -156 -97 -156c-54 0 -94 49 -94 110c0 54 28 70 46 70
s39 -15 39 -47c0 -13 -4 -28 -10 -39c-7 -13 -15 -24 -15 -36s9 -30 34 -30c60 0 67 98 67 138v434c0 29 2 96 -77 100v14zM884 452c71 0 140 -54 140 -151s-69 -151 -140 -151c-70 0 -138 54 -138 151s68 151 138 151zM885 432c-40 0 -55 -24 -63 -41
c-13 -29 -12 -60 -12 -90s-1 -61 12 -90c8 -17 23 -41 63 -41s55 24 63 41c13 29 12 60 12 90s1 61 -12 90c-8 17 -23 41 -63 41zM780 0v56h210v-56h-210z" />
    <glyph glyph-name="afii10101" unicode="&#x454;" horiz-adv-x="455" 
d="M398 440v-99h-10c-8 25 -23 49 -47 71c-31 28 -58 37 -88 37c-37 0 -76 -9 -107 -54c-29 -42 -32 -95 -28 -153c49 47 80 55 100 55c19 0 40 -11 56 -19c24 -12 38 -17 50 -17c14 0 30 7 47 22l11 -8c-32 -33 -62 -61 -94 -61c-15 0 -31 9 -54 19c-20 9 -38 16 -60 16
c-37 0 -52 -29 -52 -52c0 -35 35 -85 42 -94c25 -34 67 -80 131 -80c41 0 95 23 134 63l11 -11c-57 -55 -102 -85 -168 -85c-65 0 -127 32 -164 77c-36 43 -58 112 -58 168c0 61 27 132 74 178c30 29 78 59 144 59c52 0 98 -16 130 -32z" />
    <glyph glyph-name="guillemotright" unicode="&#xbb;" horiz-adv-x="576" 
d="M329 273l-202 -203l-22 22l182 181l-182 181l22 22zM511 273l-202 -203l-22 22l182 181l-182 181l22 22z" />
    <glyph glyph-name="afii10105" unicode="&#x458;" horiz-adv-x="215" 
d="M155 472v-514c0 -48 3 -107 -38 -155c-22 -26 -48 -39 -83 -39c-32 0 -69 16 -69 52c0 30 23 40 42 40c16 0 35 -12 41 -25c4 -10 6 -24 27 -24c11 0 32 7 32 40c0 14 -3 27 -7 46c-4 16 -7 32 -7 53v412c0 13 0 49 -50 46v13c31 5 67 19 90 55h22zM72 619
c0 27 22 49 49 49s49 -22 49 -49s-22 -49 -49 -49s-49 22 -49 49z" />
    <glyph glyph-name="afii10054" unicode="&#x405;" horiz-adv-x="616" 
d="M495 546h-16c-30 86 -106 138 -193 138c-88 0 -129 -55 -129 -116c0 -107 121 -136 217 -178c105 -45 182 -88 182 -190c0 -107 -96 -214 -250 -214c-38 0 -118 7 -234 69l-7 133h16c37 -105 128 -172 232 -172c121 0 163 82 163 144c0 93 -91 125 -169 162
c-130 60 -217 87 -217 214c0 104 86 178 208 178c68 0 136 -24 186 -55z" />
    <glyph glyph-name="afii10102" unicode="&#x455;" horiz-adv-x="431" 
d="M350 353h-12c-4 19 -13 40 -26 56c-21 25 -54 40 -86 40c-22 0 -53 -7 -71 -20c-19 -13 -33 -36 -33 -62c0 -22 11 -37 21 -45c22 -18 78 -31 166 -75c45 -22 79 -48 79 -109c0 -88 -72 -148 -181 -148c-56 0 -106 14 -152 38l-5 106h12c19 -73 94 -121 159 -121
c74 0 116 43 116 92c0 52 -43 70 -86 88l-96 40c-77 32 -84 81 -84 101c0 50 22 83 43 101c25 22 65 37 114 37c41 0 87 -10 128 -27z" />
    <glyph glyph-name="afii10104" unicode="&#x457;" horiz-adv-x="252" 
d="M157 472v-409c0 -15 0 -54 56 -53v-10h-174v10c56 -1 56 38 56 53v295c0 13 0 49 -50 46v13c31 5 67 19 90 55h22zM15 611c0 34 28 49 49 49c24 0 49 -21 49 -49c0 -26 -23 -49 -49 -49c-23 0 -49 18 -49 49zM143 611c0 34 28 49 49 49c24 0 49 -21 49 -49
c0 -26 -23 -49 -49 -49c-23 0 -49 18 -49 49z" />
    <glyph glyph-name="afii10017" unicode="&#x410;" horiz-adv-x="632" 
d="M357 733l196 -627c3 -11 27 -88 99 -92v-14h-241v14h12c34 0 57 22 57 51c0 9 -3 16 -5 24l-37 127h-274l-40 -128c-7 -22 -2 -74 53 -74v-14h-187v14c72 8 93 68 98 81l170 475c2 7 5 16 5 24c0 22 -18 31 -39 32h-18v16c54 6 95 41 107 91h44zM310 622l-135 -376h251z
" />
    <glyph glyph-name="afii10018" unicode="&#x411;" horiz-adv-x="651" 
d="M50 700h462l33 -135h-15c-20 56 -72 105 -169 105h-81c-78 0 -77 -37 -77 -81v-174c37 5 71 7 103 7c67 0 151 -9 219 -58c53 -39 86 -94 86 -172c0 -120 -99 -192 -210 -192h-351v14c73 8 77 61 77 101v469c0 35 2 101 -77 102v14zM203 385v-282c0 -69 27 -73 73 -73h73
c59 0 100 25 123 48c45 44 47 98 47 123c0 101 -71 191 -233 191c-28 0 -55 -2 -83 -7z" />
    <glyph glyph-name="afii10019" unicode="&#x412;" horiz-adv-x="670" 
d="M50 700h315c37 0 112 -1 164 -58c35 -39 38 -84 38 -104c0 -95 -71 -160 -152 -165v-5c41 -4 102 -20 139 -48c36 -28 61 -75 61 -135c0 -51 -22 -95 -51 -125c-52 -54 -120 -60 -175 -60h-339v14c75 7 76 62 76 100v472c0 37 -2 92 -76 100v14zM202 379h132
c94 0 151 59 151 143c0 35 -11 76 -31 101c-33 43 -82 47 -122 47h-60c-67 0 -70 -28 -70 -61v-230zM202 349v-274c0 -20 3 -45 59 -45h105c54 0 102 26 127 59c18 24 30 59 30 96c0 48 -17 87 -43 113c-48 49 -121 51 -148 51h-130z" />
    <glyph glyph-name="afii10020" unicode="&#x413;" horiz-adv-x="547" 
d="M50 700h458l34 -135h-15c-35 73 -112 105 -170 105h-94c-54 0 -60 -38 -60 -68v-486c0 -33 -2 -100 77 -102v-14h-230v14c81 3 77 70 77 102v462c0 32 1 108 -77 108v14z" />
    <glyph glyph-name="afii10021" unicode="&#x414;" horiz-adv-x="682" 
d="M129 700h502v-14c-77 -12 -78 -74 -78 -100v-500c0 -46 49 -75 103 -68l29 -172h-16c-5 31 -21 74 -74 112c-59 42 -113 42 -160 42h-254c-99 0 -187 -58 -214 -154h-16l41 172c55 -1 86 18 115 73c10 19 35 71 63 193c15 66 42 214 40 284c-1 24 -6 92 -81 118v14z
M477 90v514c0 27 2 66 -66 66h-68c-81 0 -88 -38 -91 -81c-3 -47 -24 -363 -126 -559h277c56 0 74 27 74 60z" />
    <glyph glyph-name="afii10022" unicode="&#x415;" horiz-adv-x="646" 
d="M50 700h510l22 -137h-22c-8 18 -24 49 -44 68c-22 21 -58 39 -101 39h-150c-38 0 -63 -23 -63 -65v-208h193c19 0 50 3 67 29c9 13 11 30 10 43h16v-174h-16c1 13 -1 30 -10 43c-17 26 -48 29 -67 29h-193v-275c0 -12 2 -62 70 -62h142c41 0 123 0 176 111h16l-24 -141
h-532v14c75 7 76 62 76 100v472c0 38 -1 93 -76 100v14z" />
    <glyph glyph-name="afii10024" unicode="&#x416;" horiz-adv-x="1016" 
d="M392 700h232v-14c-77 -7 -78 -65 -78 -100v-276l244 260c13 14 32 41 32 65c0 19 -9 52 -63 51v14h224v-14c-15 -3 -58 -14 -107 -66l-171 -184c21 -45 66 -141 102 -208c102 -189 177 -265 234 -311l-13 -17c-48 30 -96 67 -159 134c-90 96 -161 201 -233 328l-90 -93
v-155c0 -35 1 -93 78 -100v-14h-232v14c77 7 78 65 78 100v155l-90 93c-72 -127 -143 -232 -233 -328c-63 -67 -111 -104 -159 -134l-13 17c57 46 132 122 234 311c36 67 81 163 102 208l-171 184c-49 52 -92 63 -107 66v14h224v-14c-54 1 -63 -32 -63 -51
c0 -24 19 -51 32 -65l244 -260v276c0 35 -1 93 -78 100v14z" />
    <glyph glyph-name="afii10025" unicode="&#x417;" horiz-adv-x="619" 
d="M192 392h38c76 0 124 6 157 29c33 22 57 65 57 115c0 81 -55 148 -162 148c-82 0 -125 -41 -144 -68c-21 -30 -28 -65 -30 -75h-16v120c86 48 162 53 205 53c50 0 114 -5 167 -48c42 -34 62 -81 62 -126c0 -80 -69 -145 -164 -158v-2c94 -9 197 -72 197 -182
c0 -80 -42 -127 -63 -146c-63 -57 -148 -66 -197 -66s-135 4 -234 64v124h16c28 -124 117 -158 203 -158c108 0 183 64 183 171c0 51 -19 87 -40 111c-56 64 -132 64 -197 64h-38v30z" />
    <glyph glyph-name="afii10026" unicode="&#x418;" horiz-adv-x="792" 
d="M50 700h228v-14c-74 -8 -76 -63 -76 -100v-409l388 407v9c0 31 -3 85 -76 93v14h228v-14c-74 -8 -76 -63 -76 -100v-472c0 -37 2 -92 76 -100v-14h-228v14c74 8 76 63 76 100v425l-388 -407v-18c0 -37 2 -92 76 -100v-14h-228v14c74 8 76 63 76 100v472
c0 37 -2 92 -76 100v14z" />
    <glyph glyph-name="afii10027" unicode="&#x419;" horiz-adv-x="792" 
d="M50 700h228v-14c-74 -8 -76 -63 -76 -100v-409l388 407v9c0 31 -3 85 -76 93v14h228v-14c-74 -8 -76 -63 -76 -100v-472c0 -37 2 -92 76 -100v-14h-228v14c74 8 76 63 76 100v425l-388 -407v-18c0 -37 2 -92 76 -100v-14h-228v14c74 8 76 63 76 100v472
c0 37 -2 92 -76 100v14zM396 774c22 0 69 6 91 21c9 6 20 19 20 28s-8 10 -16 12c-7 2 -18 6 -23 12c-7 7 -10 19 -10 28c0 13 5 33 36 33c10 0 25 -1 37 -15c11 -12 16 -31 16 -50c0 -29 -12 -58 -50 -79c-27 -15 -64 -22 -101 -22s-74 7 -101 22c-38 21 -50 50 -50 79
c0 19 5 38 16 50c12 14 27 15 37 15c31 0 36 -20 36 -33c0 -9 -3 -21 -10 -28c-5 -6 -16 -10 -23 -12c-8 -2 -16 -3 -16 -12s11 -22 20 -28c22 -15 69 -21 91 -21z" />
    <glyph glyph-name="afii10028" unicode="&#x41a;" horiz-adv-x="665" 
d="M50 700h228v-14c-74 -8 -76 -63 -76 -100v-282l247 266c13 14 32 41 32 65c0 19 -9 52 -63 51v14h224v-14c-15 -3 -58 -14 -107 -66l-171 -184c21 -45 66 -141 102 -208c102 -189 177 -265 234 -311l-13 -17c-48 30 -96 67 -159 134c-90 96 -161 201 -233 328l-93 -99
v-149c0 -37 2 -92 76 -100v-14h-228v14c74 8 76 63 76 100v472c0 37 -2 92 -76 100v14z" />
    <glyph glyph-name="afii10029" unicode="&#x41b;" horiz-adv-x="741" 
d="M178 700h513v-14c-74 -8 -76 -63 -76 -100v-472c0 -37 2 -92 76 -100v-14h-228v14c74 8 76 63 76 100v470c0 74 -29 86 -70 86h-72c-81 0 -89 -42 -93 -86c-8 -74 -3 -62 -18 -198c-27 -239 -54 -313 -75 -347c-26 -42 -57 -53 -102 -53c-72 0 -104 60 -104 117
c0 40 19 88 63 88c42 0 46 -37 46 -48c0 -23 -11 -41 -23 -56c-8 -10 -19 -23 -19 -35c0 -15 14 -36 42 -36c34 0 53 25 63 43c36 64 62 247 71 335c5 51 13 152 13 194c-1 83 -54 96 -83 98v14z" />
    <glyph glyph-name="afii10030" unicode="&#x41c;" horiz-adv-x="949" 
d="M292 700l175 -504l195 504h162v-14c-83 -5 -70 -63 -66 -85l83 -500c8 -49 43 -83 91 -87v-14h-248v14c37 -4 77 16 77 60c0 13 -4 24 -5 33l-84 511l-212 -542h-30l-194 525l-98 -482c-2 -9 -5 -34 -5 -43c0 -45 49 -60 77 -62v-14h-193v14c51 2 75 37 86 92l95 473
c3 14 3 23 3 38c0 13 -1 65 -72 69v14h163z" />
    <glyph glyph-name="afii10031" unicode="&#x41d;" horiz-adv-x="782" 
d="M50 700h228v-14c-74 -8 -76 -63 -76 -100v-194h378v194c0 37 -2 92 -76 100v14h228v-14c-74 -8 -76 -63 -76 -100v-472c0 -37 2 -92 76 -100v-14h-228v14c74 8 76 63 76 100v248h-378v-248c0 -37 2 -92 76 -100v-14h-228v14c74 8 76 63 76 100v472c0 37 -2 92 -76 100v14
z" />
    <glyph glyph-name="afii10032" unicode="&#x41e;" horiz-adv-x="792" 
d="M60 350c0 82 28 176 86 245s149 119 250 119s192 -50 250 -119s86 -163 86 -245s-28 -176 -86 -245s-149 -119 -250 -119s-192 50 -250 119s-86 163 -86 245zM152 350c0 -76 17 -167 59 -230c48 -71 121 -104 185 -104s137 33 185 104c42 63 59 154 59 230
s-17 167 -59 230c-48 71 -121 104 -185 104s-137 -33 -185 -104c-42 -63 -59 -154 -59 -230z" />
    <glyph glyph-name="afii10033" unicode="&#x41f;" horiz-adv-x="788" 
d="M50 700h688v-14c-76 -8 -76 -72 -76 -100v-472c0 -23 -6 -90 76 -100v-14h-228v14c82 10 76 77 76 100v473c0 35 8 83 -84 83h-216c-92 0 -84 -48 -84 -83v-473c0 -23 -6 -90 76 -100v-14h-228v14c82 10 76 77 76 100v472c0 25 0 93 -76 100v14z" />
    <glyph glyph-name="afii10034" unicode="&#x420;" horiz-adv-x="626" 
d="M50 700h299c64 0 146 -7 207 -81c35 -42 45 -87 45 -132c0 -50 -14 -120 -88 -171c-29 -20 -92 -53 -218 -53h-93v-149c0 -37 2 -92 76 -100v-14h-228v14c74 8 76 63 76 100v472c0 37 -2 92 -76 100v14zM202 293h89c209 0 218 128 218 186c0 35 -4 96 -30 133
c-39 57 -102 58 -138 58h-61c-85 0 -78 -47 -78 -83v-294z" />
    <glyph glyph-name="afii10035" unicode="&#x421;" horiz-adv-x="699" 
d="M611 549h-14c-41 97 -133 135 -206 135c-94 0 -239 -71 -239 -337c0 -62 6 -144 57 -219c36 -53 102 -112 202 -112c61 0 126 24 166 66c25 27 43 65 51 101h16v-141c-67 -36 -142 -56 -216 -56c-236 0 -368 189 -368 362c0 193 141 366 384 366c62 0 113 -12 167 -36
v-129z" />
    <glyph glyph-name="afii10036" unicode="&#x422;" horiz-adv-x="582" 
d="M50 700h482l30 -134h-16c-28 53 -83 104 -161 104c-57 0 -56 -37 -56 -66v-490c0 -37 2 -92 76 -100v-14h-228v14c74 8 76 63 76 100v490c0 25 1 66 -56 66c-78 0 -133 -50 -161 -104h-16z" />
    <glyph glyph-name="afii10037" unicode="&#x423;" horiz-adv-x="646" 
d="M392 227l130 343c11 28 13 45 13 57c0 28 -15 53 -69 59v14h195v-14c-73 -21 -92 -78 -105 -112l-178 -476c-7 -20 -22 -53 -49 -78c-29 -27 -59 -34 -96 -34c-91 0 -143 69 -143 143c0 55 33 72 54 72c19 0 44 -12 44 -48c0 -19 -5 -29 -12 -40c-7 -12 -18 -26 -18 -42
c0 -26 32 -55 77 -55c25 0 61 7 88 42c17 22 29 54 34 68l-238 466c-17 34 -37 80 -104 94v14h217v-14c-38 0 -53 -20 -53 -40c0 -12 8 -22 13 -32z" />
    <glyph glyph-name="afii10038" unicode="&#x424;" horiz-adv-x="816" 
d="M294 714h228v-14c-39 -4 -76 -23 -76 -88v-10c146 11 310 -59 310 -245c0 -175 -160 -256 -310 -239v-10c0 -34 3 -87 76 -94v-14h-228v14c73 7 76 60 76 94v10c-10 -1 -19 -2 -29 -2c-140 0 -281 72 -281 241c0 176 145 246 282 246c9 0 19 0 28 -1v10
c0 65 -37 84 -76 88v14zM370 146v427c-113 1 -224 -63 -224 -212c0 -56 10 -126 73 -174c38 -29 95 -45 151 -41zM446 573v-427c56 -4 113 12 151 41c63 48 73 118 73 174c0 149 -111 213 -224 212z" />
    <glyph glyph-name="afii10039" unicode="&#x425;" horiz-adv-x="642" 
d="M332 422l123 190c6 9 14 25 14 36c0 18 -14 36 -62 36v16h200v-16c-62 -6 -97 -47 -121 -83l-137 -204l193 -321c13 -22 39 -57 93 -62v-14h-237v14c19 0 55 7 55 40c0 12 -10 34 -16 44l-136 230l-149 -230c-7 -10 -12 -20 -12 -34c0 -28 27 -52 60 -50v-14h-199v14
c54 14 87 45 120 94l164 244l-151 254c-14 23 -37 72 -102 80v14h223v-14c-17 1 -52 -3 -52 -36c0 -17 9 -24 16 -36z" />
    <glyph glyph-name="afii10040" unicode="&#x426;" horiz-adv-x="781" 
d="M731 700v-14c-82 -10 -76 -77 -76 -100v-481c0 -72 78 -75 97 -75h22l20 -184h-16c-33 132 -117 154 -169 154h-559v14c76 8 76 72 76 100v472c0 23 6 90 -76 100v14h228v-14c-82 -10 -76 -77 -76 -100v-484c0 -38 3 -72 84 -72h209c81 0 84 34 84 72v484
c0 23 6 90 -76 100v14h228z" />
    <glyph glyph-name="afii10041" unicode="&#x427;" horiz-adv-x="702" 
d="M25 700h228v-14c-74 -8 -76 -63 -76 -100v-164c0 -20 -3 -54 23 -81c28 -28 80 -31 105 -31c84 0 148 15 195 33v243c0 37 -2 92 -76 100v14h228v-14c-74 -8 -76 -63 -76 -100v-472c0 -37 2 -92 76 -100v-14h-228v14c74 8 76 63 76 100v201c-71 -23 -153 -39 -228 -39
c-44 0 -171 6 -171 129v181c0 37 -2 92 -76 100v14z" />
    <glyph glyph-name="afii10042" unicode="&#x428;" horiz-adv-x="1068" 
d="M50 700h228v-14c-74 -8 -76 -63 -76 -100v-471c0 -74 22 -85 66 -85h169c54 0 59 38 59 85v471c0 37 -2 92 -76 100v14h228v-14c-74 -8 -76 -63 -76 -100v-471c0 -47 5 -85 59 -85h169c44 0 66 11 66 85v471c0 37 -2 92 -76 100v14h228v-14c-74 -8 -76 -63 -76 -100v-472
c0 -37 2 -92 76 -100v-14h-968v14c74 8 76 63 76 100v472c0 37 -2 92 -76 100v14z" />
    <glyph glyph-name="afii10043" unicode="&#x429;" horiz-adv-x="1068" 
d="M50 700h228v-14c-74 -8 -76 -63 -76 -100v-471c0 -74 22 -85 66 -85h169c54 0 59 38 59 85v471c0 37 -2 92 -76 100v14h228v-14c-74 -8 -76 -63 -76 -100v-471c0 -47 5 -85 59 -85h151c81 0 84 34 84 72v484c0 23 6 90 -76 100v14h228v-14c-82 -10 -76 -77 -76 -100v-481
c0 -48 37 -75 95 -75h24l20 -184h-16c-37 144 -133 154 -195 154h-820v14c74 8 76 63 76 100v472c0 37 -2 92 -76 100v14z" />
    <glyph glyph-name="afii10044" unicode="&#x42a;" horiz-adv-x="825" 
d="M52 700h387v-14c-71 -9 -74 -62 -74 -100v-171c32 6 83 13 126 13c92 0 154 -26 196 -56c58 -42 88 -100 88 -177c0 -81 -42 -124 -60 -141c-35 -32 -92 -54 -156 -54h-347v14c81 8 77 73 77 100v472c0 41 3 84 -81 84c-97 0 -150 -57 -176 -107h-17zM365 387v-273
c0 -31 -5 -69 40 -80c9 -2 20 -4 70 -4c60 0 109 8 152 48c32 29 56 73 56 122c0 73 -44 149 -137 182c-31 11 -63 16 -95 16c-29 0 -57 -3 -86 -11z" />
    <glyph glyph-name="afii10045" unicode="&#x42b;" horiz-adv-x="920" 
d="M51 700h228v-14c-74 -8 -76 -63 -76 -100v-171c32 6 83 13 126 13c92 0 154 -26 196 -56c58 -42 88 -100 88 -177c0 -81 -42 -124 -60 -141c-35 -32 -92 -54 -156 -54h-347v14c81 8 77 73 77 100v472c0 37 -2 92 -76 100v14zM203 387v-273c0 -31 -5 -69 40 -80
c9 -2 20 -4 70 -4c60 0 109 8 152 48c32 29 56 73 56 122c0 73 -44 149 -137 182c-31 11 -63 16 -95 16c-29 0 -57 -3 -86 -11zM642 700h228v-14c-74 -8 -76 -63 -76 -100v-472c0 -37 2 -92 76 -100v-14h-228v14c74 8 76 63 76 100v472c0 37 -2 92 -76 100v14z" />
    <glyph glyph-name="afii10046" unicode="&#x42c;" horiz-adv-x="663" 
d="M51 700h228v-14c-74 -8 -76 -63 -76 -100v-171c32 6 83 13 126 13c92 0 154 -26 196 -56c58 -42 88 -100 88 -177c0 -81 -42 -124 -60 -141c-35 -32 -92 -54 -156 -54h-347v14c81 8 77 73 77 100v472c0 37 -2 92 -76 100v14zM203 387v-273c0 -31 -5 -69 40 -80
c9 -2 20 -4 70 -4c60 0 109 8 152 48c32 29 56 73 56 122c0 73 -44 149 -137 182c-31 11 -63 16 -95 16c-29 0 -57 -3 -86 -11z" />
    <glyph glyph-name="afii10047" unicode="&#x42d;" horiz-adv-x="709" 
d="M105 519h-16l4 134c28 16 110 61 197 61c69 0 174 -19 262 -116c68 -75 97 -164 97 -244c0 -199 -167 -368 -376 -368c-52 0 -130 13 -198 37l-6 149h16c39 -122 155 -156 219 -156c124 0 253 110 253 318c0 19 -1 39 -4 58c-65 -72 -115 -89 -145 -89
c-27 0 -68 14 -90 26c-21 11 -42 28 -77 28c-27 0 -54 -10 -75 -33l-12 11c22 31 71 83 138 83c22 0 40 -7 56 -14c10 -4 20 -9 30 -14c23 -10 54 -22 79 -22c42 0 92 23 92 82c0 82 -85 228 -226 228c-109 0 -186 -72 -218 -159z" />
    <glyph glyph-name="afii10048" unicode="&#x42e;" horiz-adv-x="1078" 
d="M50 700h228v-14c-74 -8 -76 -63 -76 -100v-194h146c8 66 34 142 84 203c58 69 150 119 250 119c101 0 192 -50 250 -119s86 -163 86 -245s-28 -176 -86 -245s-149 -119 -250 -119s-192 50 -250 119c-52 63 -87 153 -86 257h-144v-248c0 -37 2 -92 76 -100v-14h-228v14
c74 8 76 63 76 100v472c0 37 -2 92 -76 100v14zM438 350c0 -76 17 -167 59 -230c48 -71 121 -104 185 -104s137 33 185 104c42 63 59 154 59 230s-17 167 -59 230c-48 71 -121 104 -185 104s-137 -33 -185 -104c-42 -63 -59 -154 -59 -230z" />
    <glyph glyph-name="afii10049" unicode="&#x42f;" horiz-adv-x="668" 
d="M618 700v-14c-74 -8 -76 -63 -76 -100v-472c0 -37 2 -92 76 -100v-14h-227v14c72 9 75 62 75 100v182c-29 -6 -55 -8 -87 -8c-16 0 -32 1 -48 2c-20 -64 -48 -123 -78 -172c-47 -77 -115 -154 -212 -218l-8 11c43 46 91 107 132 188c58 116 74 186 79 208
c-92 20 -162 93 -162 189c0 74 28 123 68 154c50 39 125 50 182 50h286zM466 326v261c0 49 -1 83 -70 83h-56c-56 0 -100 -23 -126 -48c-42 -40 -50 -91 -50 -124c0 -31 5 -73 39 -112c54 -63 133 -68 189 -68c31 0 50 1 74 8z" />
    <glyph glyph-name="afii10065" unicode="&#x430;" horiz-adv-x="474" 
d="M441 0h-118v53c-63 -42 -113 -63 -166 -63c-94 0 -116 66 -116 104c0 63 49 100 83 120c17 10 52 29 141 63l58 22v42c0 27 1 53 -12 74c-10 16 -31 34 -63 34c-28 0 -59 -9 -76 -25c-29 -27 -15 -52 -25 -76s-28 -27 -38 -27c-24 0 -37 17 -37 39c0 26 15 58 61 84
s88 28 114 28c32 0 77 -5 108 -36c29 -28 30 -60 30 -86v-287c0 -15 0 -54 56 -53v-10zM323 76v200c-40 -14 -112 -48 -148 -76c-47 -36 -62 -78 -62 -107c0 -44 33 -69 71 -69c44 0 104 29 139 52z" />
    <glyph glyph-name="afii10066" unicode="&#x431;" horiz-adv-x="535" 
d="M449 692h15c-8 -23 -25 -59 -50 -84c-38 -37 -85 -45 -135 -55c-43 -8 -95 -20 -130 -56c-31 -32 -48 -84 -52 -122h3c39 67 112 97 174 97c133 0 216 -126 216 -248c0 -132 -96 -234 -212 -234c-54 0 -223 18 -223 285c0 63 11 149 59 227c45 73 100 104 171 122
c83 21 140 17 164 68zM127 231c0 -62 15 -218 143 -218c70 0 148 49 148 216c0 183 -88 220 -145 220c-60 0 -146 -38 -146 -218z" />
    <glyph glyph-name="afii10067" unicode="&#x432;" horiz-adv-x="489" 
d="M39 462h220c32 0 75 -1 112 -30c34 -27 40 -58 40 -78c0 -54 -40 -99 -99 -106v-6c65 -4 132 -39 132 -116c0 -52 -28 -82 -54 -99c-35 -23 -74 -27 -112 -27h-236v10c52 -1 53 38 53 53v336c0 15 0 54 -56 53v10zM157 229v-160c0 -13 1 -46 38 -46h63
c109 0 114 75 114 101c0 21 -2 54 -37 82c-30 24 -59 23 -87 23h-91zM157 252h77c25 0 59 3 85 29c21 20 24 41 24 65c0 59 -36 93 -92 93h-55c-15 0 -39 -7 -39 -47v-140z" />
    <glyph glyph-name="afii10068" unicode="&#x433;" horiz-adv-x="396" 
d="M39 462h323l29 -125h-12c-41 90 -105 103 -162 102c-54 -1 -60 -26 -60 -50v-326c0 -15 0 -54 56 -53v-10h-174v10c56 -1 56 38 56 53v336c0 15 0 54 -56 53v10z" />
    <glyph glyph-name="afii10069" unicode="&#x434;" horiz-adv-x="445" 
d="M72 462h344v-10c-52 3 -57 -40 -57 -62v-315c0 -30 25 -61 60 -61h23l28 -142h-14c-17 78 -90 128 -166 128h-153c-55 0 -126 -22 -154 -128h-14l22 142h16c32 0 58 20 88 122c22 77 35 167 37 211s-5 87 -60 105v10zM78 23h167c49 0 52 30 52 54v305c0 59 -22 57 -48 57
h-30c-54 0 -58 -38 -59 -59c-2 -36 -8 -120 -31 -218c-12 -48 -27 -92 -51 -139z" />
    <glyph glyph-name="afii10070" unicode="&#x435;" horiz-adv-x="472" 
d="M416 254h-298c-1 -9 -1 -17 -1 -26c0 -115 78 -193 179 -193c37 0 76 13 119 56l14 -12c-50 -56 -94 -89 -161 -89c-130 0 -223 107 -223 244c0 139 91 238 192 238c90 0 170 -80 179 -218zM118 277h233c-3 95 -56 172 -122 172c-56 0 -115 -62 -111 -172z" />
    <glyph glyph-name="afii10072" unicode="&#x436;" horiz-adv-x="732" 
d="M279 462h174v-10c-56 1 -56 -38 -56 -53v-198l193 201c4 5 10 13 10 20c0 13 -14 28 -39 30v10h148v-10c-22 -8 -50 -22 -88 -62l-96 -100l141 -226c18 -28 37 -47 68 -54v-10h-173v10h6c13 0 35 9 35 29c0 12 -6 19 -10 26l-113 181l-82 -83v-100c0 -15 0 -54 56 -53
v-10h-174v10c56 -1 56 38 56 53v100l-82 83l-113 -181c-4 -7 -10 -14 -10 -26c0 -20 22 -29 35 -29h6v-10h-173v10c31 7 50 26 68 54l141 226l-96 100c-38 40 -66 54 -88 62v10h148v-10c-25 -2 -39 -17 -39 -30c0 -7 6 -15 10 -20l193 -201v198c0 15 0 54 -56 53v10z" />
    <glyph glyph-name="afii10073" unicode="&#x437;" horiz-adv-x="425" 
d="M115 256h21c39 0 86 -1 120 20c23 14 44 39 44 81c0 58 -41 92 -93 92c-65 0 -114 -44 -131 -107h-14l14 99c41 19 87 31 127 31c8 0 80 -1 126 -40c27 -23 39 -53 39 -83s-16 -52 -29 -66c-17 -18 -45 -38 -88 -39v-4c35 -5 73 -20 95 -40c18 -17 34 -43 34 -75
c0 -27 -9 -74 -68 -107c-42 -23 -90 -28 -122 -28c-30 0 -92 5 -159 45v100h14c10 -32 27 -55 41 -71c38 -42 80 -51 109 -51c26 0 58 9 80 28c28 24 33 54 33 75c0 58 -35 85 -51 95c-33 21 -79 22 -119 22h-23v23z" />
    <glyph glyph-name="afii10074" unicode="&#x438;" horiz-adv-x="518" 
d="M39 462h174v-10c-56 1 -56 -38 -56 -53v-257l204 210v47c0 15 0 54 -56 53v10h174v-10c-56 1 -56 -38 -56 -53v-336c0 -15 0 -54 56 -53v-10h-174v10c56 -1 56 38 56 53v252l-204 -209v-43c0 -15 0 -54 56 -53v-10h-174v10c56 -1 56 38 56 53v336c0 15 0 54 -56 53v10z
" />
    <glyph glyph-name="afii10075" unicode="&#x439;" horiz-adv-x="518" 
d="M39 462h174v-10c-56 1 -56 -38 -56 -53v-257l204 210v47c0 15 0 54 -56 53v10h174v-10c-56 1 -56 -38 -56 -53v-336c0 -15 0 -54 56 -53v-10h-174v10c56 -1 56 38 56 53v252l-204 -209v-43c0 -15 0 -54 56 -53v-10h-174v10c56 -1 56 38 56 53v336c0 15 0 54 -56 53v10z
M259 553c16 0 33 0 48 11c8 6 16 18 16 27c0 10 -8 15 -15 21c-12 11 -16 24 -16 34c0 20 16 30 33 30c21 0 40 -19 40 -52c0 -45 -29 -73 -56 -84c-18 -7 -39 -9 -50 -9s-32 2 -50 9c-27 11 -56 39 -56 84c0 33 19 52 40 52c17 0 33 -10 33 -30c0 -10 -4 -23 -16 -34
c-7 -7 -15 -10 -15 -21c0 -6 2 -16 16 -26c18 -13 31 -12 48 -12z" />
    <glyph glyph-name="afii10076" unicode="&#x43a;" horiz-adv-x="490" 
d="M39 462h174v-10c-56 1 -56 -38 -56 -53v-198l191 201c4 5 10 13 10 20c0 13 -14 28 -39 30v10h148v-10c-22 -8 -50 -22 -88 -62l-96 -100l141 -226c18 -28 37 -47 68 -54v-10h-173v10h6c13 0 35 9 35 29c0 12 -6 19 -10 26l-113 181l-80 -83v-100c0 -15 0 -54 56 -53v-10
h-174v10c56 -1 56 38 56 53v336c0 15 0 54 -56 53v10z" />
    <glyph glyph-name="afii10077" unicode="&#x43b;" horiz-adv-x="514" 
d="M135 462h339v-10c-56 1 -56 -38 -56 -53v-335c0 -38 20 -55 57 -54v-10h-175v10c56 -1 56 38 56 53v336c0 13 -1 40 -42 40h-47c-34 0 -36 -19 -44 -81c-8 -68 -14 -120 -24 -185c-12 -78 -23 -135 -53 -162c-11 -10 -30 -21 -61 -21c-56 0 -80 38 -80 82
c0 40 22 67 50 67c19 0 37 -14 37 -41c0 -13 -1 -26 -13 -42c-4 -6 -10 -13 -10 -23c0 -4 4 -16 21 -16c56 0 67 86 83 195c9 63 14 110 15 168c1 72 -43 72 -53 72v10z" />
    <glyph glyph-name="afii10078" unicode="&#x43c;" horiz-adv-x="618" 
d="M313 112l123 350h143v-10c-56 1 -56 -38 -56 -53v-336c0 -15 0 -54 56 -53v-10h-174v10c56 -1 56 38 56 53v372l-155 -435h-18l-160 435v-372c0 -15 0 -54 56 -53v-10h-145v10c56 -1 56 38 56 53v336c0 15 0 54 -56 53v10h149z" />
    <glyph glyph-name="afii10079" unicode="&#x43d;" horiz-adv-x="520" 
d="M425 399v-336c0 -15 0 -54 56 -53v-10h-174v10c56 -1 56 38 56 53v163h-206v-163c0 -15 0 -54 56 -53v-10h-174v10c56 -1 56 38 56 53v336c0 15 0 54 -56 53v10h174v-10c-56 1 -56 -38 -56 -53v-150h206v150c0 15 0 54 -56 53v10h174v-10c-56 1 -56 -38 -56 -53z" />
    <glyph glyph-name="afii10080" unicode="&#x43e;" horiz-adv-x="498" 
d="M249 -10c-53 0 -113 25 -155 82c-33 45 -49 102 -49 159s16 114 49 159c42 57 102 82 155 82s113 -25 155 -82c33 -45 49 -102 49 -159s-16 -114 -49 -159c-42 -57 -102 -82 -155 -82zM249 13c43 0 90 29 113 88c14 36 19 99 19 130s-5 94 -19 130c-23 59 -70 88 -113 88
s-90 -29 -113 -88c-14 -36 -19 -99 -19 -130s5 -94 19 -130c23 -59 70 -88 113 -88z" />
    <glyph glyph-name="afii10081" unicode="&#x43f;" horiz-adv-x="532" 
d="M39 462h454v-10c-56 1 -56 -38 -56 -53v-336c0 -15 0 -54 56 -53v-10h-174v10c56 -1 56 38 56 53v323c0 10 -1 53 -54 53h-110c-53 0 -54 -43 -54 -53v-323c0 -15 0 -54 56 -53v-10h-174v10c56 -1 56 38 56 53v336c0 15 0 54 -56 53v10z" />
    <glyph glyph-name="afii10082" unicode="&#x440;" horiz-adv-x="514" 
d="M157 482v-68h7c40 48 86 58 121 58c108 0 184 -90 184 -222c0 -180 -115 -260 -205 -260c-60 0 -91 35 -102 48h-5v-201c0 -15 1 -54 55 -53l1 -10h-174v10c56 -1 56 38 56 53v531c0 13 0 49 -50 46v13c41 6 68 24 90 55h22zM157 343v-238c0 -39 51 -92 114 -92
c50 0 126 36 126 209c0 182 -70 220 -129 220c-62 0 -111 -54 -111 -99z" />
    <glyph glyph-name="afii10083" unicode="&#x441;" horiz-adv-x="452" 
d="M407 92l18 -16c-62 -77 -121 -86 -157 -86c-117 0 -223 94 -223 240c0 161 111 242 210 242c42 0 79 -14 107 -37c27 -22 41 -50 41 -75c0 -34 -24 -46 -40 -46c-17 0 -36 11 -43 34c-5 19 0 54 -12 74c-9 14 -30 27 -62 27c-56 0 -133 -30 -133 -178
c0 -169 93 -235 175 -235c42 0 87 17 119 56z" />
    <glyph glyph-name="afii10084" unicode="&#x442;" horiz-adv-x="432" 
d="M303 0h-174v10c56 -1 56 38 56 53v313c0 19 0 56 -40 56c-42 0 -93 -34 -114 -94h-16l29 124h344l29 -124h-16c-21 60 -72 94 -114 94c-40 0 -40 -37 -40 -56v-313c0 -15 0 -54 56 -53v-10z" />
    <glyph glyph-name="afii10085" unicode="&#x443;" horiz-adv-x="448" 
d="M248 99l92 251c5 14 10 37 10 49c0 22 -13 52 -48 53v10h149v-10c-43 -8 -55 -56 -63 -76l-185 -489c-25 -65 -52 -107 -115 -107c-48 0 -81 24 -81 57c0 16 9 37 37 37c19 0 34 -7 48 -24c8 -10 12 -19 27 -19c14 0 27 12 44 55l48 119l-158 374c-24 57 -49 70 -72 73
v10h173v-10c-20 0 -43 -11 -43 -36c0 -10 5 -26 9 -35l124 -282h4z" />
    <glyph glyph-name="afii10086" unicode="&#x444;" horiz-adv-x="674" 
d="M368 721v-310c22 45 71 61 112 61c61 0 98 -48 117 -84c24 -44 32 -96 32 -157s-8 -113 -32 -157c-39 -73 -91 -84 -119 -84c-49 0 -83 21 -110 61v-214c0 -15 0 -54 56 -53v-10h-174v10c56 -1 56 38 56 53v214c-27 -40 -61 -61 -110 -61c-28 0 -80 11 -119 84
c-24 44 -32 96 -32 157s8 113 32 157c19 36 56 84 117 84c41 0 90 -16 112 -61v196c0 13 0 49 -50 46v13c41 6 68 24 90 55h22zM306 105v252c-15 36 -47 77 -87 77c-24 0 -60 -8 -83 -65c-8 -19 -19 -57 -19 -138s11 -119 19 -138c23 -57 59 -65 83 -65c40 0 72 41 87 77z
M368 357v-252c15 -36 47 -77 87 -77c24 0 60 8 83 65c8 19 19 57 19 138s-11 119 -19 138c-23 57 -59 65 -83 65c-40 0 -72 -41 -87 -77z" />
    <glyph glyph-name="afii10087" unicode="&#x445;" horiz-adv-x="437" 
d="M232 285l75 110c5 7 9 14 9 23c0 18 -15 35 -46 34v10h147v-10c-35 -4 -54 -26 -64 -40l-107 -148l128 -207c15 -24 40 -42 68 -47v-10h-172v10c26 0 40 17 40 29c0 3 -1 8 -9 21l-93 149l-103 -158c-18 -27 17 -43 42 -41v-10h-152v10c17 4 53 16 81 56l115 167l-94 158
c-7 12 -33 55 -81 61v10h175v-10c-21 3 -39 -8 -39 -27c0 -7 5 -16 7 -20z" />
    <glyph glyph-name="afii10088" unicode="&#x446;" horiz-adv-x="536" 
d="M39 462h174v-10c-56 1 -56 -38 -56 -53v-323c0 -22 2 -53 61 -53h96c60 0 61 34 61 53v323c0 15 0 54 -56 53v10h174v-10c-56 1 -56 -38 -56 -53v-323c0 -39 43 -59 82 -53l28 -151h-14c-14 62 -63 128 -145 128h-349v10c56 -1 56 38 56 53v336c0 15 0 54 -56 53v10z" />
    <glyph glyph-name="afii10089" unicode="&#x447;" horiz-adv-x="466" 
d="M427 462v-10c-56 1 -56 -38 -56 -53v-336c0 -15 0 -54 56 -53v-10h-174v10c56 -1 56 38 56 53v144c-44 -14 -93 -22 -140 -22c-97 0 -108 40 -108 81v133c0 15 0 54 -56 53v10h174v-10c-56 1 -56 -38 -56 -53v-129c0 -21 1 -57 68 -57c39 0 71 4 118 17v169
c0 15 0 54 -56 53v10h174z" />
    <glyph glyph-name="afii10090" unicode="&#x448;" horiz-adv-x="776" 
d="M39 462h174v-10c-54 1 -56 -32 -56 -53v-323c0 -20 2 -53 51 -53h98c50 0 51 39 51 53v323c0 21 -2 54 -56 53v10h174v-10c-54 1 -56 -32 -56 -53v-323c0 -56 27 -53 51 -53h98c47 0 51 30 51 53v323c0 21 -2 54 -56 53v10h174v-10c-56 1 -56 -38 -56 -53v-336
c0 -15 0 -54 56 -53v-10h-698v10c56 -1 56 38 56 53v336c0 15 0 54 -56 53v10z" />
    <glyph glyph-name="afii10091" unicode="&#x449;" horiz-adv-x="780" 
d="M39 462h174v-10c-54 1 -56 -32 -56 -53v-323c0 -20 2 -53 51 -53h98c50 0 51 39 51 53v323c0 21 -2 54 -56 53v10h174v-10c-54 1 -56 -32 -56 -53v-323c0 -56 27 -53 51 -53h98c47 0 51 30 51 53v323c0 21 -2 54 -56 53v10h174v-10c-56 1 -56 -38 -56 -53v-323
c0 -39 43 -59 82 -53l28 -151h-14c-11 72 -67 128 -145 128h-593v10c56 -1 56 38 56 53v336c0 15 0 54 -56 53v10z" />
    <glyph glyph-name="afii10092" unicode="&#x44a;" horiz-adv-x="566" 
d="M48 462h268v-10c-56 1 -56 -42 -56 -53v-139c28 6 56 9 84 9c48 0 107 -8 153 -49c29 -26 44 -58 44 -101c0 -35 -14 -58 -27 -73c-20 -24 -57 -46 -119 -46h-253v10c56 -1 56 38 56 53v334c0 7 1 42 -44 42h-21c-56 0 -92 -46 -116 -92h-12zM260 237v-166
c0 -22 2 -48 46 -48h31c24 0 48 1 70 10c25 10 62 37 62 102c0 25 -5 57 -35 83c-31 26 -70 28 -88 28c-30 0 -64 -5 -86 -9z" />
    <glyph glyph-name="afii10093" unicode="&#x44b;" horiz-adv-x="667" 
d="M39 462h174v-10c-56 1 -56 -38 -56 -53v-139c28 6 56 9 84 9c48 0 107 -8 153 -49c29 -26 44 -58 44 -101c0 -35 -14 -58 -27 -73c-20 -24 -57 -46 -119 -46h-253v10c56 -1 56 38 56 53v336c0 15 0 54 -56 53v10zM157 237v-166c0 -22 2 -48 46 -48h31c24 0 48 1 70 10
c25 10 62 37 62 102c0 25 -5 57 -35 83c-31 26 -70 28 -88 28c-30 0 -64 -5 -86 -9zM454 462h174v-10c-56 1 -56 -38 -56 -53v-336c0 -15 0 -54 56 -53v-10h-174v10c56 -1 56 38 56 53v336c0 15 0 54 -56 53v10z" />
    <glyph glyph-name="afii10094" unicode="&#x44c;" horiz-adv-x="463" 
d="M39 462h174v-10c-56 1 -56 -38 -56 -53v-139c28 6 56 9 84 9c109 0 197 -54 197 -150c0 -70 -55 -119 -146 -119h-253v10c56 -1 56 38 56 53v336c0 15 0 54 -56 53v10zM157 237v-166c0 -22 2 -48 46 -48h31c24 0 48 1 70 10c25 10 62 37 62 102c0 25 -5 57 -35 83
c-31 26 -70 28 -88 28c-30 0 -64 -5 -86 -9z" />
    <glyph glyph-name="afii10095" unicode="&#x44d;" horiz-adv-x="474" 
d="M87 340h-12l5 98c59 31 110 34 121 34c114 0 228 -99 228 -242s-117 -240 -215 -240c-81 0 -142 48 -175 85l10 11c38 -41 91 -63 130 -63c87 0 179 83 178 233c-25 -22 -57 -52 -93 -52c-6 0 -20 2 -52 17c-23 11 -40 20 -55 20c-10 0 -17 -4 -24 -8
c-9 -5 -15 -10 -22 -17l-8 10c18 18 27 27 35 34c12 11 33 27 52 27c12 0 31 -7 44 -12c18 -8 44 -23 67 -23c20 0 56 12 56 54c0 88 -63 143 -135 143c-69 0 -118 -46 -135 -109z" />
    <glyph glyph-name="afii10096" unicode="&#x44e;" horiz-adv-x="715" 
d="M39 462h174v-10c-56 1 -56 -38 -56 -53v-146h106c9 146 115 219 203 219c116 0 204 -107 204 -241s-88 -241 -204 -241s-205 107 -204 240h-105v-167c0 -15 0 -54 56 -53v-10h-174v10c56 -1 56 38 56 53v336c0 15 0 54 -56 53v10zM466 13c46 0 132 28 132 218
s-86 218 -132 218s-132 -28 -132 -218s86 -218 132 -218z" />
    <glyph glyph-name="afii10097" unicode="&#x44f;" horiz-adv-x="493" 
d="M454 462v-10c-56 1 -56 -38 -56 -53v-336c0 -15 0 -54 56 -53v-10h-174v10c56 -1 56 38 56 53v160h-99l-106 -223h-106v10c23 1 49 13 75 69l69 149c-26 4 -54 14 -74 31c-21 17 -43 47 -43 87c0 33 14 66 53 90c40 25 89 26 121 26h228zM336 246v142c0 48 -46 51 -68 51
c-43 0 -144 -4 -144 -99c0 -58 57 -94 115 -94h97z" />
    <glyph glyph-name="Euro" unicode="&#x20ac;" 
d="M488 575h-18c-10 69 -61 101 -131 101c-119 0 -162 -98 -175 -256h273l-14 -35h-260c-1 -9 -1 -23 -1 -32v-35h235l-14 -35h-219c10 -166 70 -259 175 -259c61 0 120 27 130 103h19l-5 -78c-25 -34 -70 -62 -159 -62c-147 0 -224 101 -237 296h-67l14 35h49
c-1 9 -1 26 -1 36c0 8 0 22 1 31h-63l14 35h51c18 188 79 294 239 294c95 0 138 -32 159 -59z" />
    </font>
</defs>
</svg>
